<?xml version="1.0" encoding="utf-8"?>
<!-- Generator: Adobe Illustrator 16.0.0, SVG Export Plug-In . SVG Version: 6.00 Build 0)  -->
<!DOCTYPE svg PUBLIC "-//W3C//DTD SVG 1.1//EN" "http://www.w3.org/Graphics/SVG/1.1/DTD/svg11.dtd">
<svg version="1.1" xmlns="http://www.w3.org/2000/svg" xmlns:xlink="http://www.w3.org/1999/xlink" x="0px" y="0px"
	 width="1805.16px" height="400px" viewBox="1.34 60.5 1805.16 400" enable-background="new 1.34 60.5 1805.16 400"
	 xml:space="preserve">
<g id="HANDS">
	<g id="_x23_2">
		<path fill="#FFFFFF" stroke="#FFFFFF" stroke-width="14" stroke-miterlimit="10" d="M476.346,374.194
			c-8.653,7.21-18.766,12.669-29.68,15.86l-52.2,15.262c-18.885,5.521-36.734,13.904-53.031,24.939l-13.631,9.224
			c-2.244,1.514-5.269,1.085-7.007-1.001l-32.879-39.475c-0.734-0.875-1.153-1.961-1.213-3.101
			c-0.105-2.048-2.097-50.298,38.744-71.335c22.966-11.831,45.282-16.764,59.953-18.825c10.655-1.492,20.813-6.056,29.362-13.177
			l38.327-31.926c6.608-5.496,15.319-6.838,22.937-4.298l1.336-65.517c-0.72-13.877,5.388-27.833,16.35-36.961l2.467-2.057
			c1.367-1.139,3.222-1.511,4.921-0.985c1.701,0.52,3.022,1.871,3.514,3.581l26.66,92.709c5.831,20.274,1.879,42.552-10.575,59.591
			l-4.159,5.684l-20.373,37.665C491.153,359.325,484.375,367.504,476.346,374.194z M325.845,428.071l9.683-6.555
			c17.207-11.642,36.04-20.495,55.98-26.322l52.2-15.256c18.357-5.361,34.09-18.083,43.185-34.905l20.546-37.978
			c0.11-0.215,0.234-0.406,0.385-0.604l4.36-5.978c10.552-14.423,13.9-33.288,8.957-50.447l-24.308-84.563
			c-6.119,6.836-9.407,15.936-8.938,25.192l-1.462,72.594c0.131,0.156,0.269,0.314,0.398,0.474
			c8.456,10.144,7.074,25.283-3.07,33.739l-53.477,44.536c-6.946,5.788-12.891,12.626-17.655,20.318l-4.635-2.544l-4.462-2.802
			l0.148-0.246c5.344-8.619,12.037-16.314,19.859-22.828l53.468-44.545c5.681-4.727,6.456-13.203,1.724-18.888
			c-4.736-5.683-13.208-6.452-18.89-1.716l-38.322,31.915c-10.067,8.392-22.05,13.755-34.648,15.517
			c-13.864,1.938-34.94,6.608-56.594,17.762c-30.911,15.939-33.003,51.604-33.063,59.744l28.632,34.384L325.845,428.071z"/>
		<path fill="#FFFFFF" stroke="#FFFFFF" stroke-width="14" stroke-miterlimit="10" d="M49.862,349.99l-20.373-37.665l-4.159-5.684
			c-12.454-17.039-16.406-39.317-10.575-59.591l26.66-92.709c0.491-1.71,1.813-3.061,3.514-3.581
			c1.699-0.526,3.554-0.154,4.921,0.985l2.467,2.057c10.962,9.128,17.069,23.084,16.35,36.961l1.336,65.517
			c7.617-2.54,16.328-1.198,22.937,4.298l38.327,31.926c8.549,7.121,18.707,11.685,29.362,13.177
			c14.671,2.062,36.987,6.994,59.954,18.825c40.84,21.037,38.85,69.287,38.744,71.335c-0.061,1.14-0.479,2.226-1.213,3.101
			l-32.879,39.475c-1.738,2.086-4.764,2.515-7.008,1.001l-13.631-9.224c-16.297-11.035-34.146-19.418-53.031-24.939l-52.2-15.262
			c-10.914-3.191-21.026-8.65-29.68-15.86C61.655,367.442,54.877,359.264,49.862,349.99z M220.184,428.008l28.631-34.384
			c-0.059-8.141-2.15-43.805-33.063-59.744c-21.653-11.153-42.729-15.823-56.594-17.762c-12.599-1.762-24.581-7.125-34.648-15.517
			l-38.322-31.915c-5.682-4.736-14.153-3.967-18.89,1.716c-4.732,5.685-3.957,14.161,1.724,18.888l53.468,44.545
			c7.822,6.514,14.516,14.209,19.859,22.828l0.148,0.246l-4.462,2.802l-4.635,2.544c-4.765-7.692-10.709-14.53-17.655-20.318
			L62.269,297.4c-10.145-8.456-11.526-23.596-3.07-33.739c0.13-0.159,0.268-0.317,0.398-0.474l-1.462-72.594
			c0.47-9.256-2.818-18.355-8.938-25.192L24.89,249.966c-4.943,17.158-1.595,36.023,8.957,50.446l4.36,5.978
			c0.15,0.198,0.274,0.39,0.385,0.604l20.546,37.978c9.095,16.822,24.827,29.544,43.185,34.905l52.2,15.256
			c19.94,5.827,38.773,14.681,55.981,26.322l9.682,6.555L220.184,428.008z"/>
	</g>
	<g id="_x23_1" display="none">
		<path display="inline" d="M85.198,417.115l48.142,24.065V495c0,5.523,4.478,10,10,10h106c5.522,0,10-4.477,10-10V364.45
			c0-30.637-22.983-56.045-53.391-59.093c-0.118-0.033-42.3-6.619-61.87-26.189l-22.458-22.447
			C114.065,249.163,104.021,245,93.34,245v-80c0-22.056-17.944-40-40-40s-40,17.944-40,40v135.84
			c0,24.158,6.714,47.791,19.415,68.342C45.455,389.733,63.59,406.308,85.198,417.115L85.198,417.115z M33.34,165
			c0-11.028,8.972-20,20-20s20,8.972,20,20v85.361c-12.196,7.052-20,20.2-20,34.639c0,10.68,4.162,20.723,11.719,28.279
			l51.21,51.221c3.903,3.905,10.236,3.907,14.142,0.001c3.905-3.905,3.906-10.236,0.001-14.142l-51.21-51.221
			c-3.78-3.779-5.862-8.801-5.862-14.139c0-8.464,5.357-16.044,13.332-18.861c0.003,0,0.006-0.002,0.009-0.004h0.001
			c6.896-2.443,15.077-0.994,20.799,4.729l22.458,22.449c23.186,23.185,73.843,31.909,73.944,31.938
			c20.214,2.026,35.457,18.879,35.457,39.2V485h-86v-50c0-3.788-2.141-7.251-5.528-8.944l-53.669-26.83
			C56.639,380.47,33.34,342.771,33.34,300.84V165z"/>
		<path display="inline" d="M453.482,417.115c21.607-10.808,39.742-27.382,52.442-47.934c12.701-20.551,19.415-44.184,19.415-68.342
			V165c0-22.056-17.943-40-40-40s-40,17.944-40,40v80c-10.682,0-20.725,4.163-28.281,11.721l-22.458,22.447
			c-19.569,19.57-61.752,26.156-61.87,26.189c-30.408,3.048-53.391,28.456-53.391,59.093V495c0,5.523,4.479,10,10,10h106
			c5.521,0,10-4.477,10-10v-53.819L453.482,417.115L453.482,417.115z M505.34,300.84c0,41.932-23.299,79.63-60.803,98.386
			l-53.67,26.83c-3.387,1.693-5.527,5.156-5.527,8.944v50h-86V364.45c0-20.321,15.243-37.174,35.457-39.2
			c0.102-0.028,50.758-8.753,73.943-31.938l22.459-22.449c5.722-5.723,13.902-7.172,20.799-4.729h0.001
			c0.003,0.002,0.006,0.004,0.009,0.004c7.975,2.817,13.332,10.397,13.332,18.861c0,5.338-2.082,10.359-5.861,14.139l-51.211,51.221
			c-3.904,3.905-3.904,10.236,0.002,14.142c3.905,3.906,10.238,3.904,14.141-0.001l51.211-51.221
			c7.557-7.557,11.719-17.6,11.719-28.279c0-14.439-7.805-27.587-20-34.639V165c0-11.028,8.973-20,20-20s20,8.972,20,20V300.84z"/>
	</g>
</g>
<g id="FLOWER">
	<path fill="#FFFFFF" stroke="#FFFFFF" stroke-width="7" stroke-miterlimit="10" d="M261,305c0,5.523,4.479,10,10,10s10-4.477,10-10
		v-30h38.279C375.369,275,421,229.369,421,173.28V125c0-4.044-2.438-7.691-6.173-9.239c-3.737-1.548-8.038-0.692-10.897,2.168
		C392.921,128.938,378.286,135,362.72,135c-33.444,0-63.169,16.227-81.72,41.219V85c0-5.523-4.479-10-10-10s-10,4.477-10,10v51.22
		C242.449,111.228,212.725,95,179.28,95c-15.566,0-30.201-6.062-41.209-17.071c-2.859-2.86-7.161-3.717-10.898-2.168
		C123.437,77.31,121,80.956,121,85v48.28C121,189.369,166.631,235,222.72,235H261V305z M362.721,155
		c13.625,0,26.719-3.458,38.279-9.959v28.239c0,45.061-36.659,81.72-81.721,81.72H301l56-42c4.418-3.313,5.313-9.582,2-14
		s-9.581-5.315-14-2l-64,48v-8.28C281,191.66,317.659,155,362.721,155z M141,133.28v-28.239c11.561,6.501,24.655,9.959,38.28,9.959
		c45.061,0,81.72,36.66,81.72,81.72V205l-64-48c-4.418-3.313-10.686-2.418-14,2c-3.313,4.418-2.418,10.687,2,14l56,42h-18.28
		C177.659,215,141,178.341,141,133.28z"/>
</g>
<g id="TITLE">
	<g>
		<path fill="#FFFFFF" d="M809.688,174.16c1.815,1.269,2.721,2.717,2.721,4.353c0,1.086-0.454,2.538-1.357,4.349l-29.911,32.632
			c-1.82,1.814-3.354,2.72-4.623,2.72c-0.726,0-1.813-0.452-3.264-1.36c-3.63-3.263-7.932-5.798-12.918-7.612
			c-4.984-1.812-10.469-2.721-16.447-2.721c-8.338,0-16.364,1.818-24.066,5.439c-7.713,3.629-14.511,8.477-20.395,14.549
			c-5.895,6.075-10.61,13.099-14.146,21.074c-3.534,7.979-5.299,16.313-5.299,25.02c0,5.982,0.95,11.466,2.854,16.451
			c1.903,4.984,4.623,9.337,8.159,13.048c3.534,3.713,7.837,6.622,12.911,8.706c5.078,2.082,10.786,3.124,17.132,3.124
			c6.161,0,12.104-0.946,17.816-2.854c5.714-1.899,11.192-4.484,16.447-7.749c1.092-0.908,2.355-1.359,3.813-1.359
			c1.445,0,2.535,0.817,3.263,2.446l16.047,33.448c0.177,0.543,0.271,1.181,0.271,1.907c0,1.628-0.501,2.95-1.498,3.94
			c-0.997,0.998-2.131,1.86-3.399,2.582c-9.785,5.805-19.944,10.248-30.458,13.327c-10.516,3.082-21.211,4.623-32.087,4.623
			c-12.516,0-23.934-2.09-34.268-6.257c-10.332-4.165-19.173-9.878-26.512-17.131c-7.345-7.247-13.051-15.91-17.131-25.972
			c-4.081-10.059-6.118-20.891-6.118-32.493c0-16.684,3.672-32.631,11.015-47.863c7.343-15.225,17.038-28.639,29.098-40.244
			c12.051-11.6,25.785-20.805,41.194-27.604c15.406-6.798,31.092-10.198,47.046-10.198c10.879,0,20.803,1.499,29.775,4.488
			C794.327,163.962,802.436,168.362,809.688,174.16z"/>
		<path fill="#FFFFFF" d="M901.33,165.458l-24.476,115.297c-0.542,2.001-0.908,3.945-1.089,5.849
			c-0.183,1.903-0.271,3.765-0.271,5.577c0,9.247,2.585,15.815,7.752,19.713c5.166,3.901,11.462,5.846,18.897,5.846
			c4.53,0,9.012-0.814,13.461-2.446c4.438-1.632,8.476-3.986,12.103-7.069c3.626-3.085,6.843-6.938,9.654-11.559
			c2.81-4.621,4.848-9.926,6.116-15.91l24.477-115.297c0.357-1.632,1.177-3.034,2.445-4.214s2.897-1.771,4.895-1.771h39.702
			c1.995,0,3.446,0.455,4.353,1.36c0.902,0.912,1.359,1.998,1.359,3.263c0,0.546-0.094,1-0.276,1.361L996.23,279.941
			c-3.446,15.775-8.657,29.056-15.635,39.84c-6.981,10.788-15.093,19.492-24.337,26.107c-9.251,6.616-19.357,11.385-30.321,14.281
			c-10.972,2.898-22.164,4.348-33.582,4.348c-9.791,0-18.997-1.083-27.604-3.264c-8.619-2.181-16.137-5.615-22.569-10.334
			c-6.438-4.718-11.519-10.879-15.229-18.492c-3.715-7.618-5.58-16.86-5.58-27.742c0-7.972,0.909-16.216,2.721-24.741
			l24.474-114.483c0.366-1.631,1.184-3.036,2.452-4.216c1.265-1.178,2.626-1.764,4.08-1.764h40.79c1.264,0,2.487,0.451,3.67,1.357
			c1.181,0.909,1.766,2.083,1.766,3.535v1.086H901.33z"/>
		<path fill="#FFFFFF" d="M1019.621,355.267l40.518-190.08c0.363-1.634,1.178-3.033,2.447-4.216
			c1.269-1.174,2.897-1.767,4.897-1.767h40.246c1.446,0,2.67,0.454,3.67,1.36c0.995,0.909,1.495,2.086,1.495,3.535
			c0,0.546-0.095,0.909-0.271,1.089l-31.277,147.933h74.781c3.087,0,4.621,1.543,4.621,4.621v1.634l-7.613,35.622
			c-0.366,1.635-1.186,3.083-2.454,4.349c-1.27,1.269-2.904,1.903-4.894,1.903h-121.284c-3.451,0-5.167-1.36-5.167-4.081
			c0-0.366,0.044-0.682,0.137-0.949C1019.577,355.948,1019.621,355.633,1019.621,355.267z"/>
		<path fill="#FFFFFF" d="M1166.739,199.178l7.342-33.72c0.358-1.812,1.22-3.264,2.578-4.353c1.363-1.088,3.046-1.631,5.035-1.631
			h146.304c1.443,0,2.717,0.407,3.808,1.224c1.084,0.818,1.636,2.04,1.636,3.671v1.089l-7.351,33.72
			c-0.366,1.629-1.269,3.22-2.711,4.757c-1.459,1.54-3.176,2.313-5.17,2.313h-47.046l-31.543,148.748
			c-0.363,1.635-1.219,3.086-2.582,4.352c-1.354,1.268-3.039,1.903-5.028,1.903h-39.973c-1.448,0-2.717-0.499-3.807-1.496
			c-1.082-0.995-1.634-2.217-1.634-3.671c0-0.546,0.085-0.906,0.271-1.088l31.542-148.748h-46.773c-3.447,0-5.17-1.631-5.17-4.896
			c0-0.363,0.053-0.723,0.142-1.089C1166.692,199.905,1166.739,199.544,1166.739,199.178z"/>
		<path fill="#FFFFFF" d="M1325.542,355.267l40.519-189.808c0.362-1.632,1.13-3.034,2.313-4.214c1.184-1.18,2.763-1.771,4.758-1.771
			h39.97c1.271,0,2.544,0.455,3.813,1.36c1.266,0.912,1.902,2.086,1.902,3.535c0,0.366-0.05,0.593-0.135,0.682
			c-0.092,0.094-0.136,0.229-0.136,0.407l-40.247,189.808c-0.724,3.987-3.355,5.981-7.883,5.981h-39.972
			c-3.45,0-5.167-1.36-5.167-4.081c0-0.366,0.047-0.682,0.136-0.949C1325.504,355.948,1325.542,355.633,1325.542,355.267z"/>
		<path fill="#FFFFFF" d="M1477.007,358.53c-1.272-2.897-2.175-6.344-2.722-10.333l-30.999-182.739c0-1.995,0.407-3.491,1.225-4.488
			c0.817-0.995,2.398-1.496,4.76-1.496h43.775c3.447,0,5.444,1.727,5.981,5.17l9.79,123.728c11.776-20.848,23.931-41.511,36.438-62
			c12.514-20.484,24.748-41.062,36.713-61.728c1.813-3.443,4.615-5.17,8.431-5.17h42.965c3.264,0,4.895,1.089,4.895,3.264
			c0,0.366-0.047,0.729-0.136,1.089c-0.091,0.365-0.229,0.817-0.41,1.36l-109.05,183.011c-1.447,2.543-3.306,5.352-5.572,8.434
			c-2.271,3.085-4.763,4.62-7.48,4.62h-33.72C1479.179,361.251,1477.55,360.348,1477.007,358.53z"/>
		<path fill="#FFFFFF" d="M1571.639,355.813l114.482-191.169c0.724-1.092,1.947-2.219,3.67-3.399c1.724-1.18,3.312-1.771,4.76-1.771
			h40.249c1.448,0,2.711,0.407,3.805,1.224c1.096,0.818,1.721,1.679,1.904,2.583l33.991,191.986v1.905
			c-0.543,2.719-2.812,4.082-6.799,4.082h-39.158c-3.806,0-5.978-1.632-6.523-4.896c-0.727-4.715-1.448-9.333-2.178-13.868
			c-0.726-4.529-1.451-9.152-2.175-13.869h-72.336l-16.312,27.737c-1.817,3.264-4.449,4.896-7.884,4.896h-45.686
			c-1.448,0-2.677-0.272-3.67-0.817c-1.002-0.546-1.325-1.445-0.953-2.718C1571.186,356.993,1571.458,356.355,1571.639,355.813z
			 M1704.069,222.837c-2.72,4.532-5.531,9.474-8.43,14.818c-2.903,5.351-5.803,10.788-8.701,16.317
			c-2.906,5.532-5.811,10.92-8.707,16.179c-2.904,5.258-5.712,10.244-8.428,14.954h41.873L1704.069,222.837z"/>
	</g>
</g>
</svg>
