<?xml version="1.0" encoding="utf-8"?>
<!-- Generator: Adobe Illustrator 16.0.0, SVG Export Plug-In . SVG Version: 6.00 Build 0)  -->
<!DOCTYPE svg PUBLIC "-//W3C//DTD SVG 1.1//EN" "http://www.w3.org/Graphics/SVG/1.1/DTD/svg11.dtd">
<svg version="1.1" id="Layer_1" xmlns="http://www.w3.org/2000/svg" xmlns:xlink="http://www.w3.org/1999/xlink" x="0px" y="0px"
	 width="1287.785px" height="306.511px" viewBox="0 0 1287.785 306.511" enable-background="new 0 0 1287.785 306.511"
	 xml:space="preserve">
<g>
	<g>
		<g>
			<g>
				<path fill="#D83F87" d="M39.724,198.755c8.133,22.31,49.548,31.757,49.548,31.757c-35.014-6.927-52.64-9.785-63.791-32.692
					c-11.152-22.906,2.454-37.781-18.456-52.58l-5.687,28.75c-3.623,18.313,0.179,37.313,10.566,52.824l0,0
					c10.388,15.51,26.511,26.26,44.823,29.881l47.869,9.471c13.14,2.599,25.261,8.9,34.934,18.166l23.159,22.18
					C167.022,243.382,150.424,213.125,39.724,198.755z"/>
				<path fill="#D83F87" d="M312.575,198.701c-8.134,22.311-49.549,31.758-49.549,31.758c35.014-6.926,52.641-9.785,63.791-32.692
					c11.152-22.906-2.454-37.781,18.456-52.58l5.687,28.749c3.623,18.313-0.178,37.314-10.565,52.824l0,0
					c-10.388,15.511-26.511,26.26-44.823,29.882l-47.869,9.47c-13.139,2.6-25.26,8.901-34.934,18.167l-23.159,22.181
					C185.276,243.33,201.874,213.07,312.575,198.701z"/>
			</g>
			<g>
				<path fill="#D83F87" d="M107.689,93.604h-43.14v43.14c0,41.186,33.388,74.574,74.574,74.574h29.401
					c-16.225-31.033-39.294-58.492-67.175-79.69c30.173,19.64,57.483,43.497,80.913,70.792v-34.242
					C182.263,126.991,148.875,93.604,107.689,93.604z"/>
				<path fill="#D83F87" d="M255.832,93.604c-32.983,0-59.721,26.736-59.721,59.719v27.42
					c18.765-21.857,40.635-40.962,64.797-56.689c-22.327,16.977-40.801,38.965-53.794,63.816h23.544
					c32.983,0,59.72-26.738,59.72-59.721V93.604H255.832z"/>
				<path fill="#D83F87" d="M207.587,20.706L186.879,0l-20.706,20.706c-19.768,19.769-19.768,51.82,0,71.588l16.436,16.436
					c-1.854-24.347-0.196-48.907,4.858-72.815c-3.207,23.557-1.101,47.81,6.008,70.492l14.112-14.112
					C227.354,72.526,227.354,40.475,207.587,20.706z"/>
			</g>
		</g>
	</g>
</g>
<g>
	<path fill="#45328D" d="M536.481,87.405c1.399,0.979,2.102,2.099,2.102,3.361c0,0.84-0.354,1.961-1.053,3.36l-23.104,25.208
		c-1.402,1.4-2.594,2.101-3.572,2.101c-0.558,0-1.397-0.348-2.518-1.05c-2.804-2.521-6.128-4.479-9.979-5.882
		c-3.854-1.398-8.088-2.101-12.708-2.101c-6.441,0-12.642,1.403-18.591,4.201c-5.957,2.803-11.209,6.548-15.756,11.238
		c-4.554,4.693-8.193,10.119-10.925,16.28c-2.729,6.162-4.099,12.602-4.099,19.328c0,4.621,0.736,8.855,2.207,12.709
		c1.471,3.85,3.57,7.211,6.303,10.078c2.73,2.867,6.054,5.116,9.977,6.725c3.92,1.609,8.329,2.414,13.233,2.414
		c4.76,0,9.346-0.73,13.762-2.205c4.41-1.467,8.646-3.465,12.707-5.983c0.839-0.702,1.819-1.052,2.942-1.052
		c1.119,0,1.958,0.631,2.521,1.89l12.395,25.841c0.14,0.418,0.21,0.91,0.21,1.471c0,1.26-0.388,2.279-1.154,3.045
		c-0.773,0.771-1.648,1.437-2.625,1.994c-7.562,4.484-15.408,7.918-23.527,10.295c-8.125,2.381-16.389,3.57-24.789,3.57
		c-9.665,0-18.491-1.613-26.475-4.83c-7.98-3.221-14.807-7.633-20.478-13.234c-5.677-5.6-10.084-12.29-13.234-20.063
		c-3.148-7.771-4.727-16.138-4.727-25.1c0-12.888,2.836-25.208,8.511-36.975c5.671-11.761,13.161-22.123,22.477-31.088
		c9.308-8.96,19.92-16.071,31.822-21.323s24.02-7.877,36.342-7.877c8.402,0,16.07,1.157,23,3.466
		C524.611,79.527,530.877,82.927,536.481,87.405z"/>
	<path fill="#45328D" d="M607.271,80.684l-18.906,89.065c-0.419,1.545-0.701,3.049-0.838,4.519c-0.146,1.47-0.21,2.907-0.21,4.31
		c0,7.143,1.994,12.215,5.984,15.228c3.991,3.014,8.855,4.515,14.601,4.515c3.499,0,6.964-0.628,10.397-1.889
		c3.431-1.262,6.545-3.079,9.349-5.463c2.802-2.381,5.282-5.357,7.457-8.928c2.171-3.568,3.742-7.668,4.725-12.289l18.909-89.066
		c0.276-1.261,0.909-2.343,1.89-3.256c0.979-0.911,2.24-1.366,3.781-1.366h30.671c1.537,0,2.661,0.351,3.359,1.051
		c0.697,0.704,1.052,1.542,1.052,2.52c0,0.423-0.073,0.773-0.212,1.052l-18.696,88.437c-2.664,12.187-6.691,22.445-12.08,30.776
		c-5.394,8.333-11.657,15.058-18.801,20.168s-14.952,8.794-23.422,11.032c-8.477,2.238-17.121,3.357-25.943,3.357
		c-7.563,0-14.671-0.836-21.321-2.521c-6.655-1.686-12.467-4.337-17.436-7.982c-4.976-3.645-8.896-8.402-11.764-14.283
		c-2.872-5.887-4.31-13.024-4.31-21.432c0-6.158,0.698-12.527,2.101-19.111l18.906-88.438c0.279-1.261,0.912-2.345,1.894-3.258
		c0.978-0.909,2.029-1.362,3.149-1.362h31.51c0.979,0,1.925,0.349,2.836,1.049c0.914,0.702,1.368,1.608,1.368,2.73V80.684
		L607.271,80.684z"/>
	<path fill="#45328D" d="M698.649,227.308L729.95,80.474c0.281-1.263,0.911-2.344,1.892-3.258c0.977-0.907,2.238-1.364,3.779-1.364
		h31.091c1.116,0,2.064,0.351,2.836,1.05c0.769,0.702,1.155,1.611,1.155,2.73c0,0.423-0.07,0.702-0.21,0.842L746.335,194.75h57.769
		c2.382,0,3.566,1.192,3.566,3.568v1.264l-5.883,27.518c-0.281,1.263-0.911,2.382-1.896,3.359c-0.979,0.979-2.242,1.469-3.775,1.469
		h-93.694c-2.664,0-3.991-1.049-3.991-3.15c0-0.283,0.032-0.525,0.105-0.734C698.615,227.833,698.649,227.591,698.649,227.308z"/>
	<path fill="#45328D" d="M812.297,106.732l5.671-26.049c0.279-1.399,0.944-2.521,1.995-3.362c1.053-0.841,2.35-1.26,3.888-1.26
		h113.018c1.116,0,2.099,0.313,2.942,0.945c0.836,0.631,1.263,1.574,1.263,2.835v0.842l-5.678,26.049
		c-0.282,1.257-0.98,2.486-2.096,3.674c-1.124,1.189-2.453,1.787-3.994,1.787h-36.342l-24.368,114.905
		c-0.278,1.263-0.938,2.385-1.992,3.362c-1.05,0.979-2.349,1.47-3.885,1.47H831.84c-1.119,0-2.099-0.386-2.94-1.156
		c-0.835-0.769-1.264-1.711-1.264-2.835c0-0.422,0.068-0.7,0.209-0.841l24.368-114.905h-36.13c-2.662,0-3.994-1.261-3.994-3.781
		c0-0.281,0.04-0.559,0.107-0.842C812.263,107.293,812.297,107.015,812.297,106.732z"/>
	<path fill="#45328D" d="M934.97,227.308l31.302-146.624c0.28-1.261,0.873-2.343,1.786-3.256c0.913-0.911,2.134-1.366,3.675-1.366
		h30.877c0.981,0,1.965,0.351,2.943,1.051c0.979,0.704,1.471,1.61,1.471,2.729c0,0.283-0.038,0.458-0.104,0.526
		c-0.071,0.073-0.105,0.179-0.105,0.315l-31.09,146.624c-0.559,3.08-2.592,4.62-6.089,4.62h-30.878
		c-2.665,0-3.992-1.051-3.992-3.151c0-0.282,0.037-0.526,0.105-0.733C934.94,227.833,934.97,227.591,934.97,227.308z"/>
	<path fill="#45328D" d="M1051.975,229.83c-0.98-2.238-1.68-4.902-2.101-7.982l-23.947-141.163c0-1.541,0.313-2.697,0.945-3.468
		c0.631-0.768,1.854-1.154,3.677-1.154h33.816c2.663,0,4.205,1.332,4.62,3.993l7.563,95.577
		c9.098-16.104,18.485-32.065,28.147-47.895c9.666-15.823,19.115-31.72,28.358-47.684c1.4-2.661,3.565-3.993,6.512-3.993h33.189
		c2.521,0,3.782,0.84,3.782,2.52c0,0.283-0.036,0.563-0.104,0.842c-0.07,0.282-0.179,0.632-0.315,1.051l-84.241,141.373
		c-1.117,1.965-2.554,4.135-4.305,6.515c-1.756,2.386-3.68,3.569-5.777,3.569h-26.049
		C1053.652,231.931,1052.395,231.233,1051.975,229.83z"/>
	<path fill="#45328D" d="M1125.077,227.73l88.437-147.676c0.56-0.844,1.504-1.714,2.835-2.627c1.332-0.911,2.56-1.366,3.679-1.366
		h31.09c1.119,0,2.095,0.313,2.939,0.945c0.846,0.631,1.329,1.297,1.471,1.994l26.259,148.307v1.474
		c-0.419,2.1-2.172,3.151-5.252,3.151h-30.249c-2.939,0-4.619-1.261-5.04-3.781c-0.562-3.644-1.119-7.209-1.683-10.712
		c-0.561-3.499-1.121-7.07-1.68-10.714h-55.88l-12.601,21.426c-1.402,2.521-3.438,3.781-6.09,3.781h-35.292
		c-1.118,0-2.066-0.209-2.836-0.632c-0.771-0.422-1.022-1.115-0.734-2.1C1124.729,228.642,1124.938,228.149,1125.077,227.73z
		 M1227.379,125.008c-2.101,3.501-4.273,7.319-6.513,11.446c-2.242,4.133-4.482,8.334-6.721,12.605
		c-2.245,4.273-4.488,8.437-6.728,12.498c-2.243,4.062-4.413,7.914-6.51,11.552h32.347L1227.379,125.008z"/>
</g>
</svg>
