<?xml version="1.0" encoding="utf-8"?>
<!-- Generator: Adobe Illustrator 16.0.0, SVG Export Plug-In . SVG Version: 6.00 Build 0)  -->
<!DOCTYPE svg PUBLIC "-//W3C//DTD SVG 1.1//EN" "http://www.w3.org/Graphics/SVG/1.1/DTD/svg11.dtd">
<svg version="1.1" id="Layer_1" xmlns="http://www.w3.org/2000/svg" xmlns:xlink="http://www.w3.org/1999/xlink" x="0px" y="0px"
	 width="470.209px" height="73.5px" viewBox="0 0 470.209 73.5" enable-background="new 0 0 470.209 73.5" xml:space="preserve">
<g>
	<path fill="#00AE75" d="M65.28,8.58c0.6,0.42,0.9,0.9,0.9,1.44c0,0.36-0.151,0.841-0.45,1.44l-9.899,10.8
		c-0.602,0.601-1.111,0.9-1.53,0.9c-0.24,0-0.6-0.149-1.08-0.45c-1.201-1.08-2.625-1.919-4.275-2.52
		c-1.65-0.599-3.465-0.9-5.444-0.9c-2.76,0-5.416,0.601-7.965,1.8c-2.552,1.201-4.802,2.806-6.75,4.815
		c-1.951,2.011-3.511,4.335-4.681,6.975c-1.17,2.641-1.755,5.399-1.755,8.28c0,1.98,0.315,3.795,0.945,5.445s1.53,3.09,2.7,4.319
		s2.594,2.191,4.274,2.88c1.68,0.69,3.569,1.035,5.67,1.035c2.039,0,4.005-0.314,5.896-0.945c1.89-0.629,3.704-1.484,5.444-2.564
		c0.36-0.301,0.779-0.45,1.261-0.45c0.479,0,0.839,0.271,1.08,0.81l5.31,11.07c0.059,0.18,0.09,0.391,0.09,0.631
		c0,0.539-0.166,0.976-0.495,1.305c-0.331,0.33-0.706,0.615-1.125,0.854c-3.239,1.921-6.601,3.392-10.08,4.41
		C39.84,70.98,36.3,71.49,32.7,71.49c-4.141,0-7.921-0.691-11.341-2.07s-6.345-3.27-8.774-5.67c-2.431-2.398-4.32-5.266-5.67-8.596
		C5.565,51.825,4.89,48.24,4.89,44.4c0-5.521,1.215-10.8,3.646-15.84c2.43-5.04,5.639-9.479,9.63-13.32
		C22.154,11.401,26.7,8.355,31.8,6.105c5.099-2.25,10.29-3.375,15.57-3.375c3.6,0,6.885,0.495,9.854,1.485
		C60.195,5.205,62.879,6.661,65.28,8.58z"/>
	<path fill="#00AE75" d="M95.609,5.7l-8.1,38.159c-0.18,0.662-0.301,1.306-0.36,1.936c-0.061,0.63-0.09,1.246-0.09,1.846
		c0,3.06,0.855,5.234,2.565,6.524c1.71,1.291,3.794,1.935,6.255,1.935c1.499,0,2.983-0.27,4.455-0.81
		c1.469-0.54,2.804-1.319,4.005-2.34c1.2-1.021,2.264-2.296,3.195-3.825c0.93-1.529,1.604-3.285,2.024-5.266L117.659,5.7
		c0.119-0.54,0.39-1.004,0.81-1.395c0.419-0.39,0.959-0.585,1.62-0.585h13.14c0.659,0,1.14,0.15,1.44,0.45
		c0.299,0.301,0.45,0.661,0.45,1.08c0,0.18-0.031,0.331-0.091,0.45l-8.01,37.89c-1.141,5.221-2.866,9.616-5.175,13.186
		c-2.311,3.57-4.995,6.451-8.055,8.64c-3.061,2.19-6.406,3.767-10.035,4.726c-3.631,0.959-7.335,1.439-11.115,1.439
		c-3.24,0-6.286-0.359-9.135-1.08c-2.852-0.721-5.341-1.859-7.47-3.42c-2.131-1.561-3.812-3.6-5.04-6.12
		c-1.23-2.521-1.846-5.58-1.846-9.181c0-2.639,0.3-5.368,0.9-8.189l8.1-37.89c0.12-0.54,0.391-1.004,0.811-1.395
		c0.419-0.39,0.869-0.585,1.35-0.585h13.5c0.419,0,0.824,0.15,1.215,0.45c0.391,0.301,0.585,0.69,0.585,1.17V5.7L95.609,5.7z"/>
	<path fill="#00AE75" d="M134.759,68.52l13.41-62.91c0.12-0.54,0.39-1.004,0.81-1.395c0.419-0.389,0.959-0.585,1.62-0.585h13.32
		c0.479,0,0.884,0.15,1.215,0.45c0.329,0.301,0.495,0.69,0.495,1.17c0,0.18-0.031,0.301-0.09,0.36l-10.351,48.96h24.75
		c1.021,0,1.529,0.511,1.529,1.529v0.541l-2.52,11.789c-0.121,0.541-0.392,1.021-0.812,1.44c-0.42,0.42-0.961,0.63-1.619,0.63
		h-40.141c-1.142,0-1.71-0.45-1.71-1.35c0-0.121,0.014-0.226,0.045-0.315C134.744,68.745,134.759,68.641,134.759,68.52z"/>
	<path fill="#00AE75" d="M183.449,16.86l2.43-11.16c0.119-0.599,0.404-1.08,0.854-1.44c0.451-0.36,1.007-0.54,1.666-0.54h48.42
		c0.479,0,0.9,0.135,1.261,0.405c0.359,0.27,0.541,0.675,0.541,1.215V5.7l-2.433,11.16c-0.121,0.54-0.42,1.066-0.897,1.575
		c-0.482,0.51-1.051,0.765-1.711,0.765h-15.57L207.57,68.43c-0.12,0.541-0.403,1.021-0.854,1.44c-0.449,0.42-1.006,0.63-1.664,0.63
		h-13.23c-0.479,0-0.899-0.165-1.26-0.495c-0.358-0.329-0.541-0.733-0.541-1.215c0-0.181,0.029-0.3,0.09-0.36L200.551,19.2h-15.48
		c-1.141,0-1.711-0.54-1.711-1.62c0-0.12,0.017-0.239,0.046-0.36C183.434,17.101,183.449,16.981,183.449,16.86z"/>
	<path fill="#00AE75" d="M236.007,68.52L249.417,5.7c0.12-0.54,0.374-1.004,0.766-1.395c0.391-0.39,0.914-0.585,1.574-0.585h13.229
		c0.42,0,0.841,0.15,1.261,0.45c0.419,0.301,0.63,0.69,0.63,1.17c0,0.121-0.017,0.196-0.045,0.225
		c-0.03,0.031-0.045,0.076-0.045,0.135l-13.32,62.819c-0.24,1.32-1.11,1.98-2.609,1.98h-13.229c-1.142,0-1.71-0.45-1.71-1.35
		c0-0.121,0.015-0.226,0.045-0.315S236.007,68.641,236.007,68.52z"/>
	<path fill="#00AE75" d="M286.136,69.6c-0.421-0.959-0.72-2.1-0.9-3.42L274.976,5.7c0-0.66,0.135-1.155,0.405-1.485
		c0.27-0.329,0.794-0.495,1.575-0.495h14.488c1.141,0,1.802,0.571,1.98,1.71l3.24,40.95c3.898-6.899,7.92-13.739,12.06-20.52
		c4.141-6.779,8.19-13.59,12.15-20.43c0.599-1.139,1.528-1.71,2.79-1.71h14.22c1.08,0,1.62,0.36,1.62,1.08
		c0,0.121-0.016,0.241-0.045,0.36c-0.031,0.121-0.076,0.27-0.136,0.45l-36.091,60.57c-0.479,0.842-1.095,1.771-1.845,2.791
		c-0.751,1.021-1.575,1.529-2.475,1.529h-11.16C286.855,70.5,286.315,70.201,286.136,69.6z"/>
	<path fill="#00AE75" d="M317.455,68.7l37.89-63.27c0.239-0.36,0.645-0.734,1.215-1.125c0.57-0.39,1.095-0.585,1.575-0.585h13.32
		c0.479,0,0.898,0.135,1.26,0.405s0.569,0.556,0.63,0.855l11.25,63.54v0.631c-0.18,0.899-0.931,1.35-2.25,1.35h-12.96
		c-1.26,0-1.979-0.54-2.16-1.62c-0.24-1.56-0.479-3.089-0.72-4.59c-0.24-1.499-0.48-3.029-0.72-4.59h-23.94l-5.399,9.18
		c-0.601,1.08-1.472,1.62-2.609,1.62h-15.12c-0.48,0-0.886-0.09-1.215-0.27c-0.331-0.181-0.438-0.479-0.315-0.9
		C317.305,69.091,317.395,68.88,317.455,68.7z M361.285,24.69c-0.9,1.5-1.831,3.136-2.79,4.905c-0.961,1.77-1.921,3.57-2.88,5.4
		c-0.962,1.831-1.922,3.614-2.881,5.354c-0.961,1.741-1.891,3.391-2.79,4.95h13.859L361.285,24.69z"/>
</g>
<g>
	<g>
		<path fill="#00AE75" d="M465.088,3.72c-0.244-0.593-0.825-0.98-1.466-0.98c-61.585,0-68.233,25.523-68.233,36.497
			c0,3.948,0.876,7.637,2.605,10.96c0.267,0.514,0.793,0.84,1.37,0.853c0.547-0.016,1.121-0.288,1.41-0.793
			c4.157-7.186,15.932-24.92,35.376-34.342c0.797-0.381,1.749-0.055,2.127,0.729c0.381,0.79,0.051,1.742-0.736,2.123
			c-1.466,0.711-2.876,1.485-4.256,2.288c-0.527,0.309-1.038,0.635-1.555,0.955c-0.778,0.483-1.546,0.975-2.295,1.482
			c-0.746,0.502-1.482,1.016-2.206,1.543c-0.225,0.164-0.441,0.333-0.663,0.501c-19.353,14.421-31.178,37.428-31.178,45.438
			c0,0.876,0.711,1.587,1.587,1.587c0.875,0,1.586-0.711,1.586-1.587c0-2.558,1.743-7.743,5.04-13.93
			c4.786,3.913,11.226,5.995,18.763,5.995c20.379,0,24.646-19.391,26.938-29.81c3.085-14.021,9.873-22.213,15.439-27.783
			C465.2,4.993,465.333,4.314,465.088,3.72z"/>
	</g>
</g>
</svg>
