<?xml version="1.0" encoding="utf-8"?>
<!-- Generator: Adobe Illustrator 16.0.0, SVG Export Plug-In . SVG Version: 6.00 Build 0)  -->
<!DOCTYPE svg PUBLIC "-//W3C//DTD SVG 1.1//EN" "http://www.w3.org/Graphics/SVG/1.1/DTD/svg11.dtd">
<svg version="1.1" id="Layer_1" xmlns="http://www.w3.org/2000/svg" xmlns:xlink="http://www.w3.org/1999/xlink" x="0px" y="0px"
	 width="690px" height="184px" viewBox="-35 0 690 184" enable-background="new -35 0 690 184" xml:space="preserve">
<g>
	<g>
		<path fill="#FFFFFF" d="M116.997,181.929c0.087,0,0.219-0.052,0.395-0.167c0.372-0.207,0.557-0.63,0.557-1.244
			c0-0.528-0.11-1.069-0.329-1.64l-2.596-7.069h-7.89l-2.596,7.069c-0.219,0.57-0.329,1.122-0.329,1.674
			c0,0.367,0.079,0.666,0.232,0.885c0.153,0.221,0.345,0.368,0.593,0.457l0.095,0.034h-4.504l0.491-0.262
			c0.307-0.147,0.68-0.448,1.118-0.887c0.438-0.438,0.833-1.052,1.185-1.841l8.087-22.55l8.386,22.55
			c0.373,0.789,0.771,1.403,1.196,1.841c0.429,0.438,0.807,0.739,1.136,0.887l0.491,0.262L116.997,181.929L116.997,181.929z
			 M111.082,161.091l-3.487,9.497h6.969L111.082,161.091z"/>
		<path fill="#FFFFFF" d="M157.807,181.929l0.232-0.132c0.153-0.087,0.337-0.24,0.557-0.479c0.219-0.228,0.416-0.534,0.593-0.921
			c0.174-0.376,0.284-0.864,0.328-1.46v-19.559c-0.043-0.588-0.153-1.084-0.328-1.462c-0.177-0.385-0.374-0.692-0.593-0.92
			c-0.22-0.229-0.403-0.391-0.557-0.479l-0.232-0.132h5.688c6.156,0.132,10.096,2.245,11.802,6.34
			c0.79,1.842,1.184,3.815,1.184,5.921c0,2.413-0.399,4.626-1.197,6.651c-0.803,2.038-2.075,3.648-3.815,4.869
			s-4.039,1.83-6.885,1.83L157.807,181.929z M171.815,177.467c1.469-2.236,2.201-5.184,2.201-8.852c0-3.409-0.667-6.12-2.004-8.123
			c-1.623-2.4-4.284-3.612-7.991-3.612l-1.446,0.036c-0.549,0.498-0.82,1.332-0.82,2.499v19.464c0,1.185,0.284,2.034,0.854,2.56
			h0.952C167.333,181.438,170.082,180.115,171.815,177.467z"/>
		<path fill="#FFFFFF" d="M218.869,181.929l-8.38-22.548c-0.352-0.79-0.747-1.405-1.184-1.842c-0.438-0.438-0.812-0.746-1.119-0.923
			l-0.491-0.228h5.688l-0.132,0.036c-0.242,0.086-0.438,0.236-0.593,0.455c-0.154,0.22-0.232,0.518-0.232,0.885
			c0,0.466,0.109,1.028,0.329,1.686l6.543,17.777l6.537-17.777c0.219-0.613,0.33-1.123,0.33-1.518c0-0.675-0.176-1.14-0.521-1.375
			l-0.395-0.169h4.499l-0.456,0.228c-0.329,0.177-0.715,0.483-1.155,0.923c-0.439,0.437-0.834,1.052-1.185,1.842L218.869,181.929z"
			/>
		<path fill="#FFFFFF" d="M273.357,182c-2.275,0-4.354-0.574-6.226-1.732c-1.877-1.148-3.374-2.684-4.487-4.595
			c-1.118-1.921-1.68-4.047-1.68-6.397c0-2.343,0.563-4.479,1.68-6.39c1.113-1.922,2.608-3.456,4.487-4.605
			c1.873-1.148,3.951-1.721,6.226-1.721c2.281,0,4.36,0.574,6.232,1.721c1.873,1.149,3.368,2.684,4.487,4.605
			c1.118,1.912,1.675,4.047,1.675,6.39c0,2.351-0.557,4.478-1.675,6.397c-1.119,1.911-2.614,3.446-4.487,4.595
			C277.712,181.426,275.639,182,273.357,182z M273.357,181.307c1.82,0,3.483-0.537,4.983-1.628c1.5-1.088,2.697-2.535,3.582-4.341
			c0.886-1.807,1.333-3.82,1.333-6.029c0-2.211-0.448-4.228-1.333-6.054c-0.885-1.815-2.083-3.262-3.582-4.331
			c-1.5-1.08-3.162-1.613-4.983-1.613c-1.821,0-3.477,0.533-4.977,1.613c-1.505,1.069-2.703,2.516-3.601,4.331
			c-0.9,1.825-1.352,3.843-1.352,6.054c0,2.209,0.452,4.223,1.352,6.029c0.899,1.806,2.095,3.253,3.601,4.341
			C269.88,180.77,271.538,181.307,273.357,181.307z"/>
		<path fill="#FFFFFF" d="M326.846,180.063c-1.877-1.142-3.372-2.676-4.485-4.605c-1.124-1.93-1.686-4.07-1.686-6.412
			c0-2.324,0.562-4.446,1.686-6.376c1.113-1.93,2.608-3.466,4.485-4.604c1.868-1.141,3.952-1.711,6.222-1.711
			c2.001,0,3.847,0.343,5.539,1.017c1.703,0.686,3.118,1.685,4.258,3.001c0.115,0.133,0.242,0.248,0.382,0.372
			c0.14,0.123,0.303,0.216,0.479,0.287l-3.36,1.674c0.043-0.203,0.071-0.414,0.071-0.634c0-0.57-0.184-1.164-0.562-1.806
			c-0.499-0.851-1.332-1.6-2.501-2.249c-1.156-0.65-2.597-0.97-4.307-0.97c-1.815,0-3.478,0.533-4.977,1.613
			c-1.5,1.07-2.692,2.517-3.578,4.332c-0.896,1.826-1.339,3.844-1.339,6.053c0,2.193,0.442,4.191,1.339,6.017
			c0.886,1.816,2.078,3.267,3.578,4.355c1.498,1.089,3.161,1.626,4.977,1.626c1.913,0,3.457-0.228,4.641-0.693
			c1.184-0.455,2.145-1.017,2.871-1.674c0.739-0.659,1.365-1.324,1.891-1.998l0.466-0.528l0.299,0.947l-0.167,0.203
			c-0.702,0.807-1.451,1.547-2.248,2.214c-0.811,0.678-1.799,1.215-3.003,1.627c-1.193,0.422-2.775,0.633-4.749,0.633
			C330.798,181.762,328.714,181.203,326.846,180.063z"/>
		<path fill="#FFFFFF" d="M393.347,181.929c0.087,0,0.218-0.052,0.395-0.167c0.367-0.207,0.563-0.63,0.563-1.244
			c0-0.528-0.115-1.069-0.334-1.64l-2.597-7.069h-7.885l-2.606,7.069c-0.22,0.57-0.324,1.122-0.324,1.674
			c0,0.367,0.08,0.666,0.229,0.885c0.158,0.221,0.351,0.368,0.598,0.457l0.096,0.034h-4.509l0.502-0.262
			c0.307-0.147,0.674-0.448,1.112-0.887c0.438-0.438,0.833-1.052,1.184-1.841l8.087-22.55l8.385,22.55
			c0.367,0.789,0.767,1.403,1.196,1.841c0.432,0.438,0.803,0.739,1.137,0.887l0.49,0.262L393.347,181.929L393.347,181.929z
			 M387.425,161.091l-3.48,9.497h6.973L387.425,161.091z"/>
		<path fill="#FFFFFF" d="M436.674,180.063c-1.877-1.142-3.373-2.676-4.486-4.605c-1.122-1.93-1.673-4.07-1.673-6.412
			c0-2.324,0.551-4.446,1.673-6.376c1.113-1.93,2.61-3.466,4.486-4.604c1.878-1.141,3.951-1.711,6.232-1.711
			c1.99,0,3.836,0.343,5.539,1.017c1.691,0.686,3.118,1.685,4.259,3.001c0.104,0.133,0.23,0.248,0.369,0.372
			c0.141,0.123,0.304,0.216,0.48,0.287l-3.351,1.674c0.045-0.203,0.062-0.414,0.062-0.634c0-0.57-0.185-1.164-0.551-1.806
			c-0.51-0.851-1.343-1.6-2.502-2.249c-1.166-0.65-2.596-0.97-4.306-0.97c-1.827,0-3.479,0.533-4.988,1.613
			c-1.499,1.07-2.691,2.517-3.577,4.332c-0.885,1.826-1.329,3.844-1.329,6.053c0,2.193,0.444,4.191,1.329,6.017
			c0.886,1.816,2.078,3.267,3.577,4.355s3.161,1.626,4.988,1.626c1.902,0,3.446-0.228,4.631-0.693
			c1.183-0.455,2.145-1.017,2.881-1.674c0.728-0.659,1.364-1.324,1.891-1.998l0.456-0.528l0.298,0.947l-0.167,0.203
			c-0.701,0.807-1.451,1.547-2.249,2.214c-0.799,0.678-1.799,1.215-2.99,1.627c-1.193,0.422-2.775,0.633-4.75,0.633
			C440.624,181.762,438.551,181.203,436.674,180.063z"/>
		<path fill="#FFFFFF" d="M487.467,181.929l0.227-0.132c0.175-0.087,0.362-0.24,0.574-0.479c0.212-0.228,0.399-0.534,0.574-0.921
			c0.176-0.376,0.291-0.864,0.335-1.46v-19.559c-0.044-0.588-0.159-1.084-0.335-1.462c-0.175-0.385-0.362-0.692-0.574-0.92
			c-0.211-0.229-0.391-0.391-0.538-0.479c-0.158-0.088-0.247-0.132-0.263-0.132h5.683l-0.167,0.035
			c-0.105,0.042-0.245,0.112-0.42,0.227c-0.175,0.105-0.35,0.272-0.525,0.491c-0.177,0.22-0.326,0.514-0.431,0.873
			c-0.114,0.359-0.167,0.829-0.167,1.399v19.467c0,0.57,0.053,1.029,0.167,1.389c0.104,0.369,0.256,0.656,0.431,0.896
			c0.176,0.228,0.351,0.399,0.525,0.503c0.176,0.116,0.314,0.177,0.42,0.203l0.167,0.061L487.467,181.929L487.467,181.929z"/>
		<path fill="#FFFFFF" d="M544.908,181.929c0.089,0,0.219-0.052,0.396-0.167c0.366-0.207,0.562-0.63,0.562-1.244
			c0-0.528-0.114-1.069-0.334-1.64l-2.596-7.069h-7.895l-2.596,7.069c-0.222,0.57-0.324,1.122-0.324,1.674
			c0,0.367,0.079,0.666,0.228,0.885c0.158,0.221,0.351,0.368,0.598,0.457l0.096,0.034h-4.509l0.502-0.262
			c0.305-0.147,0.673-0.448,1.112-0.887c0.438-0.438,0.832-1.052,1.184-1.841l8.086-22.55l8.386,22.55
			c0.367,0.789,0.766,1.403,1.196,1.841c0.432,0.438,0.803,0.739,1.137,0.887l0.491,0.262L544.908,181.929L544.908,181.929z
			 M538.987,161.091l-3.481,9.497h6.975L538.987,161.091z"/>
	</g>
	<path fill="#DEA353" d="M356.423,30.148c-1.157-0.356-28.377,32.38-53.302,61.337l2.97,7.99
		c16.256-19.193,31.716-38.473,48.44-58.336c2.462,10.009,15.386,25.488,31.002,26.186c2.429-0.003,4.855-0.105,7.276-0.308
		c2.458-0.204,4.912-0.487,7.342-0.916c4.461-0.786,8.829-2.035,13.062-3.647c4.553-1.734,9.045-3.624,13.48-5.637
		c10.518-5.889,21.073-11.709,31.671-17.449c10.386-5.625,20.68-11.419,30.882-17.369c1.392-0.924,3.157-2.033,4.323-3.201
		c0.13-0.129,0.354-0.373,0.371-0.572c0.031-0.361-0.34-1.052-0.512-1.352l-0.063-0.113l-0.06-0.117
		c-0.147-0.297-0.486-0.91-0.826-1.041c-0.416-0.159-1.316,0.111-1.709,0.241l-0.176,0.058l-0.179,0.046
		c-2.181,0.546-4.617,1.788-6.64,2.8L450.688,38.21l-0.146,0.074c-4.188,2.098-8.271,4.398-12.229,6.898
		c-4.194,2.649-8.52,5.092-12.955,7.314c-10.883,6.199-27.69,11.498-39.916,9.998C363.112,60.086,362.655,32.065,356.423,30.148
		L356.423,30.148z M276.399,121.762c-5.363,5.805-9.618,10.098-12.087,12.006l9.725-40.899L287.292,47.6l9.779-35.208l0.037-0.113
		c0.369-1.127,1.052-3.141,1.052-4.307V7.598l0.057-0.369c0.169-1.093,0.372-2.86-0.19-3.874c-0.333-0.6-0.945-0.902-1.582-1.094
		l-0.208-0.063l-0.201-0.08c-0.918-0.367-2.081,0.198-2.869,0.658c-1.669,0.973-2.957,2.256-3.853,3.969l-3.771,9.428
		c-5.553,15.811-10.599,31.798-15.116,47.934c-4.48,16.002-8.251,32.206-11.253,48.547c-1.013,5.513-5.207,32.433,0.742,32.857
		c3.15,0.225,6.851-2.664,9.433-5.057c-0.654-0.336-1.214-0.867-1.586-1.566c-0.975-1.826-0.283-4.098,1.544-5.072l1.089-0.58
		l0.088-0.045c0.082-0.041,0.236-0.151,0.464-0.332c0.269-0.213,0.608-0.524,1.021-0.938c0.31-0.311,0.603-0.68,0.88-1.111
		c0.331-0.516,0.633-1.069,0.905-1.664L276.399,121.762z"/>
	<g>
		<path fill="#FFFFFF" d="M63.627,137.125L45.11,87.313c-0.774-1.743-1.646-3.097-2.613-4.066c-0.97-0.968-1.792-1.646-2.47-2.033
			l-1.089-0.508h12.563l-0.291,0.072c-0.533,0.194-0.97,0.534-1.308,1.017c-0.339,0.485-0.508,1.138-0.508,1.961
			c0,1.016,0.242,2.25,0.727,3.703l14.449,39.282l14.45-39.282c0.483-1.355,0.727-2.469,0.727-3.34c0-1.5-0.389-2.517-1.162-3.05
			l-0.872-0.363h9.948l-1.018,0.508c-0.726,0.388-1.574,1.065-2.542,2.033c-0.969,0.969-1.84,2.323-2.614,4.066L63.627,137.125z"/>
		<path fill="#FFFFFF" d="M108.154,137.125l0.509-0.29c0.387-0.192,0.81-0.545,1.271-1.054c0.459-0.508,0.883-1.186,1.271-2.032
			c0.387-0.847,0.628-1.925,0.726-3.231V87.314c-0.098-1.307-0.339-2.384-0.726-3.231c-0.389-0.847-0.813-1.525-1.271-2.033
			c-0.46-0.508-0.86-0.859-1.198-1.053c-0.339-0.193-0.532-0.291-0.581-0.291h12.563l-0.363,0.072
			c-0.243,0.098-0.557,0.267-0.943,0.508c-0.389,0.243-0.775,0.606-1.162,1.089c-0.389,0.484-0.702,1.125-0.944,1.924
			c-0.243,0.799-0.363,1.828-0.363,3.086v42.986c0,1.26,0.12,2.287,0.363,3.086c0.242,0.799,0.556,1.452,0.944,1.961
			c0.387,0.508,0.773,0.884,1.162,1.125c0.387,0.243,0.7,0.389,0.943,0.436l0.363,0.146H108.154z"/>
		<path fill="#FFFFFF" d="M179.332,137.125h-37.323l0.508-0.29c0.338-0.192,0.75-0.545,1.234-1.054
			c0.482-0.508,0.919-1.186,1.307-2.032c0.387-0.847,0.628-1.925,0.727-3.231V87.314c-0.099-1.307-0.34-2.384-0.727-3.231
			c-0.388-0.847-0.824-1.525-1.307-2.033c-0.484-0.508-0.896-0.859-1.234-1.053l-0.508-0.291h12.562l-0.362,0.145
			c-0.291,0.049-0.617,0.207-0.98,0.472c-0.363,0.267-0.738,0.642-1.125,1.125c-0.388,0.484-0.714,1.125-0.979,1.924
			c-0.268,0.798-0.399,1.828-0.399,3.086v43.06c0,2.371,0.556,4.139,1.67,5.301h20.259c0.871,0,1.598-0.17,2.179-0.51
			c0.581-0.338,1.027-0.75,1.343-1.233c0.313-0.483,0.544-0.968,0.689-1.452c0.146-0.482,0.219-0.896,0.219-1.234l0.072-0.508
			L179.332,137.125z"/>
		<path fill="#FFFFFF" d="M237.873,137.125h-37.322l0.508-0.29c0.338-0.192,0.75-0.545,1.234-1.054
			c0.482-0.508,0.919-1.186,1.307-2.032c0.387-0.847,0.628-1.925,0.727-3.231V87.314c-0.099-1.307-0.34-2.384-0.727-3.231
			c-0.388-0.847-0.824-1.525-1.307-2.033c-0.484-0.508-0.896-0.859-1.234-1.053l-0.508-0.291h12.562l-0.362,0.145
			c-0.291,0.049-0.617,0.207-0.98,0.472c-0.363,0.267-0.738,0.642-1.125,1.125c-0.388,0.484-0.714,1.125-0.979,1.924
			c-0.268,0.798-0.399,1.828-0.399,3.086v43.06c0,2.371,0.556,4.139,1.67,5.301h20.259c0.871,0,1.598-0.17,2.179-0.51
			c0.581-0.338,1.027-0.75,1.343-1.233c0.313-0.483,0.544-0.968,0.689-1.452c0.146-0.482,0.219-0.896,0.219-1.234l0.072-0.508
			L237.873,137.125z"/>
		<path fill="#FFFFFF" d="M293.22,137.125c0.193,0,0.483-0.12,0.871-0.363c0.823-0.482,1.233-1.402,1.233-2.759
			c0-1.162-0.242-2.371-0.726-3.631l-5.736-15.611h-17.427l-5.735,15.611c-0.484,1.26-0.727,2.494-0.727,3.703
			c0,0.823,0.169,1.478,0.508,1.961c0.338,0.483,0.774,0.823,1.308,1.017l0.218,0.072h-9.948l1.089-0.581
			c0.678-0.338,1.5-0.991,2.47-1.96c0.968-0.968,1.839-2.324,2.613-4.066l17.862-49.812l18.516,49.812
			c0.823,1.742,1.707,3.1,2.65,4.066c0.944,0.969,1.779,1.622,2.505,1.96l1.089,0.581H293.22z M280.148,91.09l-7.696,20.984h15.394
			L280.148,91.09z"/>
		<path fill="#FFFFFF" d="M331.395,134.511c-2.734-1.741-5.481-4.284-8.242-7.624l-0.145-0.218c-0.63-0.728-1.307-1.209-2.033-1.452
			l8.568-4.283c-0.291,1.017-0.437,2.104-0.437,3.268c0,2.131,0.604,4.139,1.815,6.025c2.129,3.438,6.195,5.156,12.198,5.156
			c5.131,0,8.688-1.598,10.674-4.793c1.5-2.42,2.251-5.275,2.251-8.568c-0.389-4.938-2.323-8.53-5.81-10.781
			c-3.485-2.251-7.405-4.006-11.764-5.266c-2.566-0.822-4.95-1.718-7.152-2.687c-2.202-0.968-4.006-2.202-5.408-3.703
			c-1.404-1.5-2.105-3.485-2.105-5.954c0-0.871,0.218-2.045,0.653-3.521s1.233-2.941,2.396-4.393
			c1.161-1.453,2.783-2.674,4.864-3.667c2.081-0.992,4.816-1.489,8.205-1.489c4.356,0,7.721,0.751,10.094,2.251
			c2.371,1.501,4.743,3.703,7.115,6.608c0.242,0.291,0.509,0.569,0.799,0.834c0.291,0.267,0.653,0.473,1.09,0.617l-7.407,3.704
			c0.242-0.872,0.363-1.768,0.363-2.688c0-0.871-0.098-1.767-0.29-2.686c-0.436-1.888-1.574-3.546-3.413-4.974
			c-1.84-1.427-4.623-2.142-8.351-2.142c-2.904,0-5.276,0.679-7.115,2.033c-1.841,1.356-3.195,2.941-4.065,4.756
			c-0.871,1.816-1.308,3.376-1.308,4.684c0,2.421,0.7,4.333,2.105,5.736c1.402,1.404,3.242,2.519,5.519,3.34
			c2.274,0.823,4.72,1.573,7.333,2.251c2.324,0.581,4.623,1.26,6.898,2.033c2.273,0.773,4.345,1.768,6.208,2.977
			c1.862,1.211,3.363,2.785,4.502,4.721c1.137,1.937,1.707,4.404,1.707,7.406c0,1.017-0.255,2.373-0.764,4.065
			c-0.509,1.695-1.429,3.377-2.76,5.047c-1.331,1.671-3.207,3.086-5.627,4.248c-2.421,1.161-5.567,1.742-9.438,1.742
			C338.038,137.125,334.129,136.254,331.395,134.511z"/>
		<path fill="#FFFFFF" d="M412.409,137.125c0.192,0,0.482-0.12,0.871-0.363c0.822-0.482,1.234-1.402,1.234-2.759
			c0-1.162-0.243-2.371-0.727-3.631l-5.736-15.611h-17.427l-5.736,15.611c-0.484,1.26-0.726,2.494-0.726,3.703
			c0,0.823,0.169,1.478,0.508,1.961c0.338,0.483,0.772,0.823,1.307,1.017l0.219,0.072h-9.947l1.089-0.581
			c0.678-0.338,1.5-0.991,2.469-1.96c0.968-0.968,1.84-2.324,2.614-4.066l17.862-49.812l18.516,49.812
			c0.823,1.742,1.707,3.1,2.649,4.066c0.944,0.969,1.779,1.622,2.507,1.96l1.089,0.581H412.409z M399.34,91.09l-7.697,20.984h15.395
			L399.34,91.09z"/>
		<path fill="#FFFFFF" d="M479.954,137.125l-26.721-49.812c-0.437-0.677-0.871-1.282-1.309-1.815
			c-0.097,0.533-0.145,15.491-0.145,44.874c0,2.179,0.459,3.849,1.379,5.011c0.629,0.871,1.308,1.428,2.033,1.67l0.437,0.072h-9.948
			l0.508-0.29c0.34-0.192,0.75-0.545,1.234-1.054c0.482-0.508,0.92-1.186,1.309-2.032c0.387-0.847,0.627-1.925,0.726-3.231V87.314
			c-0.099-1.307-0.339-2.384-0.726-3.231c-0.389-0.847-0.813-1.525-1.271-2.033c-0.461-0.508-0.884-0.859-1.271-1.053l-0.508-0.291
			h12.779l-0.218,0.072c-0.099,0-0.23,0.049-0.399,0.146c-0.17,0.098-0.339,0.254-0.508,0.472c-0.17,0.218-0.303,0.485-0.398,0.799
			c-0.099,0.315-0.146,0.715-0.146,1.198c0.098,1.017,0.557,2.349,1.38,3.994l20.767,38.775V87.314
			c-0.098-1.307-0.338-2.384-0.726-3.231c-0.39-0.847-0.812-1.525-1.271-2.033c-0.459-0.508-0.859-0.859-1.197-1.053
			c-0.34-0.193-0.533-0.291-0.581-0.291h9.946l-0.362,0.072c-0.242,0.098-0.558,0.267-0.942,0.508
			c-0.389,0.243-0.775,0.606-1.162,1.089c-0.389,0.484-0.703,1.125-0.943,1.924c-0.243,0.799-0.363,1.828-0.363,3.086v49.739
			L479.954,137.125L479.954,137.125z"/>
		<path fill="#FFFFFF" d="M520.487,137.053l0.509-0.291c0.338-0.191,0.749-0.544,1.233-1.053c0.482-0.508,0.92-1.186,1.308-2.033
			c0.387-0.847,0.629-1.924,0.726-3.23V87.314c-0.339-2.614-1.017-4.404-2.031-5.373h-9.223c-0.921,0-1.658,0.17-2.215,0.508
			c-0.559,0.339-0.993,0.751-1.309,1.234c-0.314,0.484-0.543,0.969-0.688,1.452c-0.146,0.484-0.218,0.896-0.218,1.234l-0.072,0.508
			l-2.179-6.245h40.808l-2.179,6.245l-0.072-0.508c0-0.338-0.071-0.75-0.218-1.234c-0.146-0.483-0.376-0.968-0.689-1.452
			c-0.314-0.483-0.752-0.895-1.308-1.234c-0.557-0.338-1.271-0.508-2.142-0.508h-9.657c-1.114,1.21-1.67,3.026-1.67,5.446v43.058
			c0,2.131,0.459,3.775,1.379,4.938c0.629,0.823,1.331,1.355,2.105,1.598l0.362,0.072H520.487L520.487,137.053z"/>
		<path fill="#FFFFFF" d="M568.5,137.125l0.508-0.29c0.388-0.192,0.812-0.545,1.271-1.054c0.459-0.508,0.883-1.186,1.271-2.032
			c0.387-0.847,0.628-1.925,0.727-3.231V87.314c-0.099-1.307-0.34-2.384-0.727-3.231c-0.388-0.847-0.812-1.525-1.271-2.033
			c-0.461-0.508-0.86-0.859-1.198-1.053c-0.34-0.193-0.533-0.291-0.581-0.291h12.562l-0.362,0.072
			c-0.242,0.098-0.558,0.267-0.943,0.508c-0.388,0.243-0.774,0.606-1.162,1.089c-0.388,0.484-0.702,1.125-0.942,1.924
			c-0.243,0.799-0.363,1.828-0.363,3.086v42.986c0,1.26,0.12,2.287,0.363,3.086c0.24,0.799,0.556,1.452,0.942,1.961
			c0.388,0.508,0.774,0.884,1.162,1.125c0.387,0.243,0.701,0.389,0.943,0.436l0.362,0.146H568.5z"/>
	</g>
</g>
</svg>
