<?xml version="1.0" encoding="utf-8"?>
<!-- Generator: Adobe Illustrator 16.0.0, SVG Export Plug-In . SVG Version: 6.00 Build 0)  -->
<!DOCTYPE svg PUBLIC "-//W3C//DTD SVG 1.1//EN" "http://www.w3.org/Graphics/SVG/1.1/DTD/svg11.dtd">
<svg version="1.1" id="Camada_1" xmlns="http://www.w3.org/2000/svg" xmlns:xlink="http://www.w3.org/1999/xlink" x="0px" y="0px"
	 width="237.15px" height="143.525px" viewBox="0 0 237.15 143.525" enable-background="new 0 0 237.15 143.525"
	 xml:space="preserve">
<g>
	<path fill-rule="evenodd" clip-rule="evenodd" fill="#DFA352" d="M99.63,28.148c-1.157-0.356-28.377,32.38-53.302,61.336
		l-33.772,48.971c16.256-19.194,68.458-79.453,85.184-99.317c2.461,10.008,15.385,25.488,31.001,26.186
		c2.429-0.003,4.856-0.106,7.277-0.308c2.458-0.205,4.912-0.487,7.342-0.916c4.461-0.787,8.829-2.036,13.061-3.647
		c4.553-1.734,9.045-3.625,13.481-5.637c10.517-5.889,21.072-11.709,31.67-17.45c10.386-5.625,20.68-11.419,30.882-17.369
		c1.392-0.924,3.157-2.034,4.324-3.201c0.129-0.129,0.354-0.374,0.371-0.573c0.03-0.361-0.341-1.052-0.512-1.351l-0.064-0.115
		l-0.059-0.117c-0.148-0.296-0.486-0.91-0.827-1.041c-0.415-0.16-1.316,0.111-1.708,0.241l-0.176,0.059l-0.179,0.045
		c-2.18,0.545-4.617,1.789-6.64,2.801l-33.087,19.462l-0.147,0.074c-4.187,2.098-8.271,4.398-12.229,6.899
		c-4.194,2.649-8.519,5.092-12.954,7.314c-10.883,6.199-27.691,11.498-39.916,9.998C106.32,58.086,105.863,30.066,99.63,28.148
		L99.63,28.148z M46.327,89.484l-26.556,38.647c-0.271,0.595-1.746,2.462-2.077,2.978c-0.277,0.431-0.758,1.691-1.067,2.001
		c-0.412,0.412-0.471,0.584-0.739,0.797c-0.228,0.181-0.429,0.503-0.511,0.543l-0.229,0.442l-0.269,0.604
		c-1.827,0.975-1.253-2.004-0.278-0.177c0.264,0.496-1.025,1.804-1.615,2.593c-0.117,0.157-0.239,0.231-0.277,0.344
		c-0.006,0.02-0.016,0.041-0.029,0.056l-0.111,0.126c-0.003,0.004-0.006,0.011-0.01,0.014c-0.001,0-0.004,0.005-0.007,0.008
		c-0.002,0.002-0.003,0.004-0.004,0.004c-2.582,2.393-6.274,5.274-9.425,5.049c-5.948-0.425-1.754-27.344-0.742-32.857
		c3.001-16.344,6.772-32.546,11.253-48.548c4.518-16.136,9.564-32.124,15.116-47.934l3.771-9.428
		c0.895-1.713,2.182-2.995,3.852-3.969c0.788-0.459,1.95-1.025,2.869-0.658l0.202,0.081l0.208,0.063
		c0.636,0.191,1.248,0.493,1.582,1.094c0.563,1.013,0.359,2.78,0.19,3.874l-0.057,0.369v0.374c0,1.167-0.682,3.181-1.051,4.307
		l-0.037,0.113L30.499,45.6L17.244,90.869L7.52,131.768C9.989,129.861,40.963,95.288,46.327,89.484z"/>
	
		<rect x="39.388" y="50.285" transform="matrix(0.7565 0.654 -0.654 0.7565 75.1765 -3.4194)" fill-rule="evenodd" clip-rule="evenodd" fill="#DFA352" width="5.585" height="97.931"/>
	
		<rect x="11.441" y="131.886" transform="matrix(0.7669 0.6417 -0.6417 0.7669 89.7562 23.0794)" fill-rule="evenodd" clip-rule="evenodd" fill="#DFA352" width="3.327" height="6.442"/>
</g>
</svg>
