<svg id="line" height="512" viewBox="0 0 64 64" width="512" xmlns="http://www.w3.org/2000/svg"><g fill="#c4a2fc"><path d="m43.2 42.858-.29-.1v5.413a3.117 3.117 0 0 0 2.053-2.426 2.486 2.486 0 0 0 -1.763-2.887z"/><path d="m39.477 37.437a1.733 1.733 0 0 0 .481 1.708 6.652 6.652 0 0 0 .948.6v-4.038a2.253 2.253 0 0 0 -1.429 1.73z"/><path d="m42 21c-11.633 0-21 13.813-21 25.25 0 10.488 7.851 16.75 21 16.75s21-6.262 21-16.75c0-11.437-9.367-25.25-21-25.25zm4.931 25.071a5.077 5.077 0 0 1 -4.025 4.17v1.259a1 1 0 0 1 -2 0v-1.18a6.255 6.255 0 0 1 -3.453-1.194 1 1 0 1 1 1.094-1.673 4.333 4.333 0 0 0 2.359.867v-6.356a10.121 10.121 0 0 1 -2.182-1.246 3.7 3.7 0 0 1 -1.212-3.652 4.215 4.215 0 0 1 2.888-3.308c.173-.052.341-.093.507-.128v-1.13a1 1 0 0 1 2 0v1.054a5.375 5.375 0 0 1 2.712 1.193 1 1 0 0 1 -1.348 1.476 3.3 3.3 0 0 0 -1.364-.638v5.037c.321.122.642.239.956.35a4.457 4.457 0 0 1 3.068 5.099z"/><path d="m35.77 20.164a17.254 17.254 0 0 1 12.46 0l1.339-2.873a3.016 3.016 0 0 0 -4.869-3.407 3.824 3.824 0 0 1 -5.4 0 3.017 3.017 0 0 0 -4.868 3.407z"/></g><path d="m40 44h-17v-5.128l1.8.58a14 14 0 0 0 17.616-9.038 4.264 4.264 0 0 0 -2.752-5.365 14.013 14.013 0 0 0 -16.664 6.807v-6.907a12 12 0 1 0 -2 0v6.908a14.016 14.016 0 0 0 -16.664-6.808 4.264 4.264 0 0 0 -2.752 5.365 14 14 0 0 0 17.616 9.038l1.8-.58v5.128h-17a3 3 0 0 0 -3 3v1a3 3 0 0 0 3 3h36a3 3 0 0 0 3-3v-1a3 3 0 0 0 -3-3zm-16.048-9.3a12.013 12.013 0 0 1 15.1-7.747 2.261 2.261 0 0 1 1.46 2.847 12.018 12.018 0 0 1 -15.1 7.747l-2.154-.694zm-5.365 2.848a12.012 12.012 0 0 1 -15.099-7.748 2.261 2.261 0 0 1 1.461-2.848 12.012 12.012 0 0 1 15.1 7.747l.693 2.154zm-6.587-24.548a10 10 0 1 1 10 10 10.011 10.011 0 0 1 -10-10zm24 33v3h-5v-3zm-7 0v3h-6v-3zm-8 3h-6v-3h6zm-8 0h-5v-3h5zm-10-1v-1a1 1 0 0 1 1-1h2v3h-2a1 1 0 0 1 -1-1zm38 0a1 1 0 0 1 -1 1h-2v-3h2a1 1 0 0 1 1 1z" fill="#151a6a"/><path d="m22.931 20v-.731a4.062 4.062 0 0 0 2.962-3.226 3.578 3.578 0 0 0 -2.433-4.043c-.174-.062-.352-.129-.529-.194v-3.178a2.1 2.1 0 0 1 .566.312 1 1 0 0 0 1.347-1.478 4.311 4.311 0 0 0 -1.913-.9v-.562a1 1 0 0 0 -2 0v.637c-.064.016-.121.018-.186.038a3.368 3.368 0 0 0 -2.31 2.641 2.991 2.991 0 0 0 .988 2.947 7.464 7.464 0 0 0 1.508.879v4.224a3.012 3.012 0 0 1 -1.331-.566 1 1 0 0 0 -1.094 1.674 4.843 4.843 0 0 0 2.425.909v.617a1 1 0 0 0 2 0zm.989-4.288a2.059 2.059 0 0 1 -.989 1.427v-3.195a1.551 1.551 0 0 1 .989 1.768zm-3.263-5.023a1.037 1.037 0 0 1 -.258-1 1.5 1.5 0 0 1 .532-.892v2.071c-.091-.061-.196-.118-.274-.179z" fill="#151a6a"/></svg>