<svg id="line" height="512" viewBox="0 0 64 64" width="512" xmlns="http://www.w3.org/2000/svg"><path d="m38 23.451a14.538 14.538 0 0 0 -13.389 20.238l19.078-19.078a14.616 14.616 0 0 0 -5.689-1.16z" fill="#c4a2fc"/><path d="m48.293 27.707a14.487 14.487 0 0 0 -2.739-2.132l-19.979 19.979a14.034 14.034 0 0 0 4.871 4.871l19.979-19.979a14.518 14.518 0 0 0 -2.132-2.739z" fill="#c4a2fc"/><path d="m59.833 38 3.118-9.633a1 1 0 0 0 -.5-1.2l-9.017-4.606-4.606-9.017a1 1 0 0 0 -1.2-.5l-9.628 3.123-9.633-3.118a1 1 0 0 0 -1.2.5l-4.606 9.017-9.017 4.606a1 1 0 0 0 -.5 1.2l3.123 9.628-3.118 9.633a1 1 0 0 0 .5 1.2l9.017 4.606 4.606 9.017a1 1 0 0 0 1.2.5l9.628-3.123 9.633 3.118a1 1 0 0 0 1.2-.5l4.606-9.017 9.017-4.606a1 1 0 0 0 .5-1.2zm-10.126 11.707a16.556 16.556 0 1 1 0-23.414 16.575 16.575 0 0 1 0 23.414z" fill="#c4a2fc"/><path d="m32.311 51.389a14.542 14.542 0 0 0 19.078-19.078z" fill="#c4a2fc"/><g fill="#151a6a"><path d="m41 20h-18a1 1 0 0 1 0-2h18a1 1 0 0 1 0 2z"/><path d="m41 25h-18a1 1 0 0 1 0-2h18a1 1 0 0 1 0 2z"/><path d="m41 30h-18a1 1 0 0 1 0-2h18a1 1 0 0 1 0 2z"/><path d="m30 33h11a1 1 0 0 1 0 2h-11a1 1 0 0 1 0-2z"/><path d="m29.918 12.478-3.065-5a1.039 1.039 0 0 0 -1.706 0l-3.065 5a1 1 0 0 0 .853 1.522h6.13a1 1 0 0 0 .853-1.522zm-2.639-.478h-2.558l1.279-2.087z"/><path d="m9.469 44.478a1 1 0 0 0 .853 1.522h7.356a1 1 0 0 0 .853-1.522l-3.678-6a1.039 1.039 0 0 0 -1.706 0zm2.639-.478 1.892-3.086 1.892 3.086z"/><path d="m2 36v12a3 3 0 0 0 3 3h18a3 3 0 0 0 3-3v-5h19a3 3 0 0 0 3-3v-29.171a2.978 2.978 0 0 0 -.879-2.122l-6.828-6.828a2.978 2.978 0 0 0 -2.122-.879h-19.171a3 3 0 0 0 -3 3v29h-11a3 3 0 0 0 -3 3zm42.586-27h-3.586a1 1 0 0 1 -1-1v-3.586zm-18.586 32v-5a3 3 0 0 0 -3-3h-5v-29a1 1 0 0 1 1-1h19v5a3 3 0 0 0 3 3h5v29a1 1 0 0 1 -1 1zm-22-5a1 1 0 0 1 1-1h18a1 1 0 0 1 1 1v12a1 1 0 0 1 -1 1h-18a1 1 0 0 1 -1-1z"/><path d="m1 8v8a1 1 0 0 0 2 0v-8a1 1 0 0 1 1-1h1v17a1 1 0 0 0 .105.447l3 6a1 1 0 0 0 1.79 0l3-6a1 1 0 0 0 .105-.447v-20a3 3 0 0 0 -3-3h-2a3 3 0 0 0 -3 3v1h-1a3 3 0 0 0 -3 3zm6-1h4v16h-4zm4-2h-4v-1a1 1 0 0 1 1-1h2a1 1 0 0 1 1 1zm-3.382 20h2.764l-1.382 2.764z"/></g></svg>