<?xml version="1.0"?>
<svg xmlns="http://www.w3.org/2000/svg" id="line" width="512" height="512" viewBox="0 0 64 64"><path d="M35,21H53a3,3,0,0,0,0-6H47.874a4,4,0,0,0-7.748,0H35a3,3,0,0,0,0,6Z" style="fill:#c4a2fc"/><path d="M60,17H57.9A5,5,0,0,1,53,23H35a5,5,0,0,1-4.9-6H28a3,3,0,0,0-3,3V60a3,3,0,0,0,3,3H60a3,3,0,0,0,3-3V20A3,3,0,0,0,60,17ZM48,53H31a1,1,0,0,1,0-2H48a1,1,0,0,1,0,2Zm0-10H31a1,1,0,0,1,0-2H48a1,1,0,0,1,0,2Zm0-10H31a1,1,0,0,1,0-2H48a1,1,0,0,1,0,2Zm9,20a1,1,0,0,1-1,1H54a1,1,0,0,1-1-1V51a1,1,0,0,1,1-1h2a1,1,0,0,1,1,1Zm0-10a1,1,0,0,1-1,1H54a1,1,0,0,1-1-1V41a1,1,0,0,1,1-1h2a1,1,0,0,1,1,1Zm0-10a1,1,0,0,1-1,1H54a1,1,0,0,1-1-1V31a1,1,0,0,1,1-1h2a1,1,0,0,1,1,1Z" style="fill:#c4a2fc"/><path d="M48,21H45V20a3,3,0,0,0-3-3H33.281l.068-.272A3,3,0,0,0,30.438,13H27V11h3a3,3,0,0,0,3-3V4a3,3,0,0,0-3-3H22a3,3,0,0,0-3,3V8a3,3,0,0,0,3,3h3v2H22.562a3,3,0,0,0-2.911,2.272L19.219,17H10a3,3,0,0,0-3,3v1H4a3,3,0,0,0-3,3v4a3,3,0,0,0,3,3H7v1a3,3,0,0,0,3,3h8.719l-.068.272A3,3,0,0,0,21.562,39H25v2H22a3,3,0,0,0-3,3v4a3,3,0,0,0,3,3h8a3,3,0,0,0,3-3V44a3,3,0,0,0-3-3H27V39h2.438a3,3,0,0,0,2.911-2.272L32.781,35H42a3,3,0,0,0,3-3V31h3a3,3,0,0,0,3-3V24A3,3,0,0,0,48,21ZM21,8V4a1,1,0,0,1,1-1h8a1,1,0,0,1,1,1V8a1,1,0,0,1-1,1H22A1,1,0,0,1,21,8ZM31,44v4a1,1,0,0,1-1,1H22a1,1,0,0,1-1-1V44a1,1,0,0,1,1-1h8A1,1,0,0,1,31,44ZM22.562,15h7.876a1,1,0,0,1,.971,1.243l-1,4a1,1,0,0,1-.971.758H21.562a1,1,0,0,1-.971-1.243l1-4A1,1,0,0,1,22.562,15ZM3,28V24a1,1,0,0,1,1-1h8a1,1,0,0,1,1,1v4a1,1,0,0,1-1,1H4A1,1,0,0,1,3,28Zm26.438,9H21.562a1,1,0,0,1-.971-1.243l1-4A1,1,0,0,1,22.562,31h7.876a1,1,0,0,1,.971,1.243l-1,4A1,1,0,0,1,29.438,37ZM43,32a1,1,0,0,1-1,1H33.281l.068-.272A3,3,0,0,0,30.438,29H22.562a3,3,0,0,0-2.911,2.272L19.219,33H10a1,1,0,0,1-1-1V31h3a3,3,0,0,0,3-3V24a3,3,0,0,0-3-3H9V20a1,1,0,0,1,1-1h8.719l-.068.272A3,3,0,0,0,21.562,23h7.876a3,3,0,0,0,2.911-2.272L32.781,19H42a1,1,0,0,1,1,1v1H40a3,3,0,0,0-3,3v4a3,3,0,0,0,3,3h3Zm6-4a1,1,0,0,1-1,1H40a1,1,0,0,1-1-1V24a1,1,0,0,1,1-1h8a1,1,0,0,1,1,1Z" style="fill:#151a6a"/></svg>
