<svg id="line" height="512" viewBox="0 0 64 64" width="512" xmlns="http://www.w3.org/2000/svg"><path d="m26.21 27.29a1 1 0 0 0 -1.42 0l-11 11a1 1 0 0 0 .71 1.71h4v20a3 3 0 0 0 3 3h8a3 3 0 0 0 3-3v-20h4a1 1 0 0 0 .71-1.71z" fill="#c4a2fc"/><path d="m62.21 27.29-14-14a1 1 0 0 0 -1.42 0l-14 14a1 1 0 0 0 .71 1.71h6v31a3 3 0 0 0 3 3h10a3 3 0 0 0 3-3v-31h6a1 1 0 0 0 .71-1.71z" fill="#c4a2fc"/><path d="m30 23.66a12 12 0 1 0 -11 0 23.06 23.06 0 0 0 -17.5 22.34 1 1 0 0 0 1 1h44a1 1 0 0 0 1-1 23.06 23.06 0 0 0 -17.5-22.34zm-15.5-10.66a10 10 0 1 1 10 10 10 10 0 0 1 -10-10zm10 12a21 21 0 0 1 6.79 1.15l-6.79 12.73-6.79-12.73a21 21 0 0 1 6.79-1.15zm-21 20a21 21 0 0 1 12.34-18.11l7.78 14.58a1 1 0 0 0 1.76 0l7.78-14.58a21 21 0 0 1 12.32 18.11z" fill="#151a6a"/></svg>