<svg id="line" height="512" viewBox="0 0 64 64" width="512" xmlns="http://www.w3.org/2000/svg"><path d="m61.29 32.71a1 1 0 0 0 1.71-.71v-16a3 3 0 0 0 -3-3h-16a1 1 0 0 0 -.71 1.71l4.05 4.05-9.34 9.34-9.34-9.34 4.05-4.05a1 1 0 0 0 -.71-1.71h-16a3 3 0 0 0 -3 3v16a1 1 0 0 0 1.71.71l4.05-4.05 9.34 9.34-9.34 9.34-4.05-4.05a1 1 0 0 0 -1.71.71v16a3 3 0 0 0 3 3h16a1 1 0 0 0 .71-1.71l-4.05-4 9.34-9.39 9.34 9.34-4.05 4a1 1 0 0 0 .71 1.76h16a3 3 0 0 0 3-3v-16a1 1 0 0 0 -1.71-.71l-4 4.05-9.39-9.34 9.34-9.34z" fill="#c4a2fc"/><path d="m48 1h-44a3 3 0 0 0 -3 3v44a3 3 0 0 0 3 3h22a1 1 0 0 0 1-1v-6.43a4.93 4.93 0 0 0 2 .43 5 5 0 0 0 0-10 4.93 4.93 0 0 0 -2 .43v-7.43h9.38a1 1 0 0 0 .62-1.75 3 3 0 0 1 -1-2.25 3 3 0 0 1 6 0 3 3 0 0 1 -1 2.25 1 1 0 0 0 .62 1.75h8.38a1 1 0 0 0 1-1v-22a3 3 0 0 0 -3-3zm-45 3a1 1 0 0 1 1-1h21v5.43a4.93 4.93 0 0 0 -2-.43 5 5 0 0 0 0 10 4.93 4.93 0 0 0 2-.43v7.43h-9.38a1 1 0 0 0 -.62 1.75 3 3 0 0 1 1 2.25 3 3 0 0 1 -6 0 3 3 0 0 1 1-2.25 1 1 0 0 0 -.62-1.75h-7.38zm26 32a3 3 0 0 1 0 6 3 3 0 0 1 -2.25-1 1 1 0 0 0 -1.75.66v7.34h-21a1 1 0 0 1 -1-1v-21h5.43a4.93 4.93 0 0 0 -.43 2 5 5 0 0 0 10 0 4.93 4.93 0 0 0 -.43-2h7.43v9.38a1 1 0 0 0 1.75.66 3 3 0 0 1 2.25-1.04zm20-11h-5.43a4.93 4.93 0 0 0 .43-2 5 5 0 0 0 -10 0 4.93 4.93 0 0 0 .43 2h-7.43v-9.38a1 1 0 0 0 -1.75-.62 3 3 0 0 1 -2.25 1 3 3 0 0 1 0-6 3 3 0 0 1 2.25 1 1 1 0 0 0 1.75-.62v-7.38h21a1 1 0 0 1 1 1z" fill="#151a6a"/></svg>