<?xml version="1.0" encoding="utf-8"?>
<!-- Generator: Adobe Illustrator 16.0.0, SVG Export Plug-In . SVG Version: 6.00 Build 0)  -->
<!DOCTYPE svg PUBLIC "-//W3C//DTD SVG 1.1//EN" "http://www.w3.org/Graphics/SVG/1.1/DTD/svg11.dtd">
<svg version="1.1" id="Layer_1" xmlns="http://www.w3.org/2000/svg" xmlns:xlink="http://www.w3.org/1999/xlink" x="0px" y="0px"
	 width="620px" height="184px" viewBox="-117.014 -1.696 620 184" enable-background="new -117.014 -1.696 620 184"
	 xml:space="preserve">
<g>
	<g>
		<path fill="#FFFFFF" d="M53.557,175.962c0.064,0,0.162-0.04,0.292-0.122c0.275-0.161,0.414-0.47,0.414-0.924
			c0-0.39-0.082-0.795-0.243-1.217l-1.922-5.23h-5.839l-1.922,5.23c-0.162,0.422-0.243,0.836-0.243,1.241
			c0,0.275,0.057,0.494,0.17,0.656c0.113,0.163,0.259,0.276,0.438,0.341l0.073,0.024h-3.333l0.365-0.194
			c0.227-0.113,0.503-0.333,0.827-0.657s0.616-0.778,0.876-1.362l5.985-16.689l6.204,16.689c0.276,0.584,0.572,1.038,0.888,1.362
			s0.596,0.544,0.839,0.657l0.365,0.194H53.557z M49.178,160.538l-2.579,7.031h5.158L49.178,160.538z"/>
		<path fill="#FFFFFF" d="M83.761,175.962l0.17-0.098c0.113-0.064,0.251-0.182,0.414-0.353c0.162-0.17,0.308-0.397,0.438-0.681
			c0.129-0.284,0.21-0.646,0.243-1.083v-14.476c-0.033-0.438-0.114-0.799-0.243-1.083c-0.13-0.283-0.276-0.511-0.438-0.681
			c-0.163-0.171-0.3-0.288-0.414-0.353l-0.17-0.098h4.209c4.557,0.098,7.469,1.663,8.734,4.695c0.584,1.362,0.876,2.822,0.876,4.379
			c0,1.785-0.296,3.427-0.888,4.927c-0.592,1.501-1.533,2.7-2.822,3.601c-1.289,0.9-2.988,1.351-5.097,1.351L83.761,175.962z
			 M94.125,172.654c1.086-1.654,1.63-3.836,1.63-6.545c0-2.529-0.495-4.532-1.484-6.009c-1.2-1.784-3.171-2.676-5.912-2.676
			l-1.07,0.024c-0.406,0.373-0.608,0.989-0.608,1.849V173.7c0,0.876,0.21,1.509,0.632,1.897h0.706
			C90.808,175.597,92.843,174.617,94.125,172.654z"/>
		<path fill="#FFFFFF" d="M128.951,175.962l-6.204-16.689c-0.26-0.584-0.552-1.038-0.876-1.362s-0.6-0.551-0.827-0.682l-0.365-0.17
			h4.209l-0.098,0.024c-0.178,0.064-0.324,0.179-0.438,0.341c-0.114,0.162-0.17,0.381-0.17,0.656c0,0.341,0.081,0.755,0.243,1.241
			l4.841,13.162l4.841-13.162c0.162-0.454,0.244-0.827,0.244-1.119c0-0.503-0.13-0.843-0.39-1.021l-0.292-0.122h3.333l-0.341,0.17
			c-0.243,0.131-0.527,0.357-0.852,0.682c-0.325,0.324-0.617,0.778-0.876,1.362L128.951,175.962z"/>
		<path fill="#FFFFFF" d="M169.276,176.011c-1.687,0-3.224-0.426-4.61-1.277s-2.494-1.986-3.321-3.406
			c-0.827-1.419-1.241-2.996-1.241-4.731s0.414-3.313,1.241-4.732c0.827-1.419,1.934-2.555,3.321-3.406
			c1.387-0.851,2.923-1.276,4.61-1.276c1.687,0,3.224,0.426,4.61,1.276c1.387,0.852,2.494,1.987,3.321,3.406
			c0.827,1.42,1.241,2.997,1.241,4.732s-0.414,3.313-1.241,4.731c-0.827,1.42-1.934,2.555-3.321,3.406
			S170.963,176.011,169.276,176.011z M169.276,175.5c1.346,0,2.575-0.401,3.686-1.205c1.111-0.803,1.995-1.873,2.652-3.211
			c0.657-1.338,0.985-2.826,0.985-4.464c0-1.639-0.328-3.131-0.985-4.477c-0.657-1.347-1.541-2.417-2.652-3.212
			c-1.111-0.794-2.339-1.191-3.686-1.191s-2.575,0.397-3.686,1.191c-1.111,0.795-2,1.865-2.664,3.212
			c-0.666,1.346-0.998,2.838-0.998,4.477c0,1.638,0.332,3.126,0.998,4.464c0.665,1.338,1.553,2.408,2.664,3.211
			C166.701,175.099,167.93,175.5,169.276,175.5z"/>
		<path fill="#FFFFFF" d="M208.858,174.576c-1.387-0.843-2.494-1.979-3.321-3.406c-0.827-1.427-1.241-3.008-1.241-4.744
			c0-1.719,0.414-3.292,1.241-4.72c0.827-1.427,1.934-2.563,3.321-3.405c1.387-0.844,2.923-1.266,4.61-1.266
			c1.476,0,2.842,0.252,4.1,0.754c1.257,0.503,2.307,1.241,3.15,2.214c0.081,0.098,0.174,0.191,0.279,0.28s0.223,0.158,0.354,0.207
			l-2.482,1.24c0.033-0.146,0.049-0.3,0.049-0.462c0-0.422-0.138-0.867-0.413-1.338c-0.373-0.633-0.989-1.188-1.85-1.667
			c-0.859-0.479-1.922-0.718-3.187-0.718c-1.347,0-2.575,0.397-3.686,1.192c-1.111,0.795-1.995,1.865-2.652,3.211
			c-0.657,1.347-0.985,2.839-0.985,4.477c0,1.622,0.328,3.106,0.985,4.452c0.657,1.347,1.541,2.421,2.652,3.224
			c1.11,0.803,2.339,1.204,3.686,1.204c1.411,0,2.555-0.17,3.431-0.511c0.875-0.341,1.585-0.754,2.128-1.24
			c0.544-0.487,1.01-0.981,1.399-1.484l0.341-0.39l0.219,0.706l-0.122,0.146c-0.519,0.601-1.074,1.148-1.666,1.643
			c-0.593,0.495-1.33,0.896-2.214,1.204c-0.885,0.309-2.056,0.462-3.516,0.462C211.781,175.84,210.245,175.419,208.858,174.576z"/>
		<path fill="#FFFFFF" d="M258.075,175.962c0.065,0,0.162-0.04,0.292-0.122c0.276-0.161,0.414-0.47,0.414-0.924
			c0-0.39-0.081-0.795-0.243-1.217l-1.922-5.23h-5.839l-1.922,5.23c-0.163,0.422-0.244,0.836-0.244,1.241
			c0,0.275,0.057,0.494,0.171,0.656c0.113,0.163,0.259,0.276,0.438,0.341l0.073,0.024h-3.333l0.365-0.194
			c0.227-0.113,0.502-0.333,0.827-0.657c0.324-0.324,0.616-0.778,0.876-1.362l5.984-16.689l6.204,16.689
			c0.275,0.584,0.571,1.038,0.888,1.362s0.596,0.544,0.84,0.657l0.364,0.194H258.075z M253.696,160.538l-2.579,7.031h5.158
			L253.696,160.538z"/>
		<path fill="#FFFFFF" d="M290.141,174.576c-1.387-0.843-2.494-1.979-3.321-3.406c-0.827-1.427-1.24-3.008-1.24-4.744
			c0-1.719,0.413-3.292,1.24-4.72c0.827-1.427,1.935-2.563,3.321-3.405c1.387-0.844,2.923-1.266,4.61-1.266
			c1.476,0,2.842,0.252,4.1,0.754c1.257,0.503,2.307,1.241,3.15,2.214c0.081,0.098,0.174,0.191,0.279,0.28s0.223,0.158,0.354,0.207
			l-2.482,1.24c0.033-0.146,0.049-0.3,0.049-0.462c0-0.422-0.138-0.867-0.413-1.338c-0.373-0.633-0.989-1.188-1.85-1.667
			c-0.859-0.479-1.922-0.718-3.187-0.718c-1.347,0-2.575,0.397-3.686,1.192c-1.111,0.795-1.995,1.865-2.652,3.211
			c-0.656,1.347-0.985,2.839-0.985,4.477c0,1.622,0.329,3.106,0.985,4.452c0.657,1.347,1.541,2.421,2.652,3.224
			c1.11,0.803,2.339,1.204,3.686,1.204c1.411,0,2.555-0.17,3.431-0.511c0.875-0.341,1.585-0.754,2.128-1.24
			c0.544-0.487,1.01-0.981,1.399-1.484l0.341-0.39l0.219,0.706l-0.122,0.146c-0.519,0.601-1.074,1.148-1.666,1.643
			c-0.593,0.495-1.33,0.896-2.214,1.204c-0.885,0.309-2.056,0.462-3.516,0.462C293.063,175.84,291.527,175.419,290.141,174.576z"/>
		<path fill="#FFFFFF" d="M327.728,175.962l0.17-0.098c0.13-0.064,0.271-0.182,0.426-0.353c0.154-0.17,0.296-0.397,0.426-0.681
			c0.13-0.284,0.211-0.646,0.243-1.083v-14.476c-0.032-0.438-0.113-0.799-0.243-1.083c-0.13-0.283-0.271-0.511-0.426-0.681
			c-0.154-0.171-0.288-0.288-0.401-0.353c-0.113-0.065-0.179-0.098-0.194-0.098h4.209l-0.122,0.024
			c-0.081,0.032-0.187,0.089-0.316,0.17c-0.13,0.082-0.259,0.203-0.389,0.365s-0.235,0.377-0.316,0.645s-0.122,0.612-0.122,1.034
			V173.7c0,0.422,0.041,0.767,0.122,1.034s0.187,0.486,0.316,0.657c0.13,0.17,0.259,0.296,0.389,0.377s0.235,0.13,0.316,0.146
			l0.122,0.049H327.728z"/>
		<path fill="#FFFFFF" d="M370.241,175.962c0.065,0,0.162-0.04,0.292-0.122c0.276-0.161,0.414-0.47,0.414-0.924
			c0-0.39-0.081-0.795-0.243-1.217l-1.922-5.23h-5.839l-1.922,5.23c-0.163,0.422-0.244,0.836-0.244,1.241
			c0,0.275,0.057,0.494,0.171,0.656c0.113,0.163,0.259,0.276,0.438,0.341l0.073,0.024h-3.333l0.365-0.194
			c0.227-0.113,0.502-0.333,0.827-0.657c0.324-0.324,0.616-0.778,0.876-1.362l5.984-16.689l6.204,16.689
			c0.275,0.584,0.571,1.038,0.888,1.362s0.596,0.544,0.84,0.657l0.364,0.194H370.241z M365.862,160.538l-2.579,7.031h5.158
			L365.862,160.538z"/>
	</g>
	<path fill-rule="evenodd" clip-rule="evenodd" fill="#DEA353" d="M238.754,28.148c-1.157-0.356-28.377,32.38-53.302,61.337
		l2.97,7.99c16.256-19.194,31.716-38.473,48.441-58.337c2.461,10.009,15.385,25.488,31.001,26.186
		c2.429-0.003,4.856-0.105,7.277-0.308c2.458-0.204,4.912-0.487,7.342-0.916c4.461-0.786,8.829-2.035,13.061-3.647
		c4.553-1.734,9.045-3.624,13.481-5.637c10.517-5.889,21.072-11.709,31.67-17.449c10.386-5.625,20.68-11.419,30.882-17.369
		c1.392-0.924,3.157-2.033,4.324-3.201c0.129-0.129,0.354-0.373,0.371-0.572c0.03-0.361-0.341-1.052-0.512-1.352l-0.064-0.113
		l-0.059-0.117c-0.148-0.297-0.486-0.91-0.827-1.041c-0.415-0.159-1.316,0.111-1.708,0.241l-0.176,0.058l-0.179,0.046
		c-2.18,0.546-4.617,1.788-6.64,2.8l-33.087,19.463l-0.147,0.074c-4.187,2.098-8.271,4.398-12.229,6.898
		c-4.194,2.649-8.519,5.092-12.954,7.314c-10.883,6.199-27.691,11.498-39.916,9.998C245.444,58.086,244.987,30.065,238.754,28.148
		L238.754,28.148z M158.731,119.762c-5.364,5.805-9.618,10.098-12.087,12.006l9.724-40.9L169.623,45.6l9.78-35.208l0.037-0.113
		c0.369-1.127,1.051-3.141,1.051-4.307V5.598l0.057-0.369c0.169-1.093,0.372-2.86-0.19-3.874c-0.333-0.6-0.946-0.902-1.582-1.094
		l-0.208-0.063l-0.202-0.08c-0.918-0.367-2.081,0.198-2.869,0.658c-1.669,0.973-2.957,2.256-3.852,3.969l-3.771,9.428
		c-5.552,15.811-10.598,31.798-15.116,47.934c-4.48,16.002-8.251,32.205-11.253,48.548c-1.013,5.512-5.207,32.432,0.742,32.857
		c3.151,0.225,6.851-2.664,9.433-5.057c-0.654-0.336-1.214-0.867-1.586-1.566c-0.975-1.826-0.283-4.098,1.544-5.072l1.089-0.58
		l0.088-0.045c0.082-0.041,0.236-0.152,0.464-0.332c0.268-0.213,0.608-0.525,1.02-0.938c0.31-0.311,0.603-0.68,0.88-1.111
		c0.331-0.516,0.633-1.07,0.905-1.664L158.731,119.762z"/>
	<g>
		<path fill="#FFFFFF" d="M-54.042,135.125l-18.516-49.812c-0.775-1.743-1.646-3.097-2.614-4.066
			c-0.969-0.968-1.792-1.646-2.469-2.033l-1.089-0.508h12.562l-0.291,0.072c-0.533,0.194-0.969,0.534-1.307,1.017
			c-0.339,0.485-0.508,1.138-0.508,1.961c0,1.016,0.242,2.25,0.726,3.703l14.45,39.282l14.45-39.282
			c0.483-1.355,0.726-2.469,0.726-3.34c0-1.5-0.388-2.517-1.162-3.05l-0.872-0.363h9.948l-1.017,0.508
			c-0.726,0.388-1.574,1.065-2.542,2.033c-0.969,0.969-1.84,2.323-2.614,4.066L-54.042,135.125z"/>
		<path fill="#FFFFFF" d="M-9.514,135.125l0.508-0.29c0.387-0.193,0.81-0.545,1.271-1.054c0.459-0.508,0.883-1.186,1.271-2.032
			c0.387-0.847,0.628-1.925,0.726-3.231V85.314c-0.098-1.307-0.339-2.384-0.726-3.231c-0.388-0.847-0.812-1.525-1.271-2.033
			c-0.46-0.508-0.86-0.859-1.198-1.053c-0.339-0.193-0.533-0.291-0.581-0.291H3.048l-0.363,0.072
			c-0.243,0.098-0.557,0.267-0.944,0.508c-0.388,0.243-0.775,0.606-1.162,1.089c-0.388,0.484-0.702,1.125-0.944,1.924
			c-0.243,0.799-0.363,1.828-0.363,3.086v42.986c0,1.26,0.12,2.287,0.363,3.086c0.242,0.799,0.556,1.452,0.944,1.961
			c0.387,0.508,0.774,0.884,1.162,1.125c0.387,0.243,0.701,0.388,0.944,0.436l0.363,0.146H-9.514z"/>
		<path fill="#FFFFFF" d="M61.663,135.125H24.34l0.508-0.29c0.338-0.193,0.75-0.545,1.234-1.054
			c0.483-0.508,0.919-1.186,1.307-2.032c0.387-0.847,0.628-1.925,0.726-3.231V85.314c-0.098-1.307-0.339-2.384-0.726-3.231
			c-0.388-0.847-0.824-1.525-1.307-2.033c-0.484-0.508-0.896-0.859-1.234-1.053l-0.508-0.291h12.562l-0.363,0.145
			c-0.291,0.049-0.617,0.207-0.98,0.472c-0.363,0.267-0.738,0.642-1.125,1.125c-0.388,0.484-0.714,1.125-0.98,1.924
			c-0.267,0.798-0.399,1.828-0.399,3.086v43.059c0,2.372,0.556,4.139,1.67,5.301h20.259c0.871,0,1.597-0.169,2.178-0.509
			c0.581-0.338,1.028-0.75,1.343-1.234c0.314-0.483,0.544-0.968,0.69-1.452c0.145-0.483,0.218-0.896,0.218-1.234l0.073-0.508
			L61.663,135.125z"/>
		<path fill="#FFFFFF" d="M120.204,135.125H82.882l0.508-0.29c0.338-0.193,0.75-0.545,1.234-1.054
			c0.483-0.508,0.919-1.186,1.307-2.032c0.387-0.847,0.628-1.925,0.726-3.231V85.314c-0.098-1.307-0.339-2.384-0.726-3.231
			c-0.388-0.847-0.824-1.525-1.307-2.033c-0.484-0.508-0.896-0.859-1.234-1.053l-0.508-0.291h12.562l-0.363,0.145
			c-0.291,0.049-0.617,0.207-0.98,0.472c-0.363,0.267-0.738,0.642-1.125,1.125c-0.388,0.484-0.714,1.125-0.98,1.924
			c-0.267,0.798-0.399,1.828-0.399,3.086v43.059c0,2.372,0.556,4.139,1.67,5.301h20.259c0.871,0,1.597-0.169,2.178-0.509
			c0.581-0.338,1.028-0.75,1.343-1.234c0.314-0.483,0.544-0.968,0.69-1.452c0.145-0.483,0.218-0.896,0.218-1.234l0.073-0.508
			L120.204,135.125z"/>
		<path fill="#FFFFFF" d="M175.551,135.125c0.193,0,0.483-0.12,0.871-0.363c0.823-0.483,1.234-1.403,1.234-2.759
			c0-1.162-0.243-2.371-0.726-3.631l-5.736-15.611h-17.427l-5.736,15.611c-0.484,1.26-0.726,2.494-0.726,3.703
			c0,0.824,0.169,1.478,0.508,1.961c0.338,0.484,0.774,0.823,1.307,1.017l0.218,0.072h-9.948l1.089-0.581
			c0.677-0.338,1.5-0.991,2.469-1.96c0.968-0.968,1.839-2.324,2.614-4.066l17.862-49.812l18.516,49.812
			c0.823,1.742,1.707,3.099,2.65,4.066c0.944,0.969,1.779,1.622,2.505,1.96l1.089,0.581H175.551z M162.48,89.09l-7.697,20.984
			h15.394L162.48,89.09z"/>
		<path fill="#FFFFFF" d="M213.726,132.511c-2.735-1.742-5.482-4.284-8.242-7.624l-0.145-0.218c-0.63-0.727-1.307-1.209-2.033-1.452
			l8.568-4.284c-0.291,1.017-0.436,2.105-0.436,3.268c0,2.131,0.604,4.139,1.815,6.026c2.129,3.438,6.195,5.156,12.198,5.156
			c5.131,0,8.688-1.598,10.674-4.793c1.5-2.42,2.251-5.275,2.251-8.568c-0.388-4.938-2.323-8.531-5.809-10.782
			s-7.406-4.005-11.764-5.265c-2.566-0.822-4.95-1.718-7.152-2.687c-2.203-0.968-4.006-2.202-5.409-3.703
			c-1.404-1.5-2.105-3.485-2.105-5.954c0-0.871,0.218-2.045,0.653-3.521c0.436-1.476,1.234-2.941,2.396-4.393
			c1.161-1.453,2.783-2.674,4.864-3.667c2.081-0.992,4.816-1.489,8.205-1.489c4.357,0,7.721,0.751,10.094,2.251
			c2.371,1.501,4.743,3.703,7.115,6.608c0.242,0.291,0.509,0.569,0.799,0.834c0.291,0.267,0.653,0.473,1.09,0.617l-7.407,3.704
			c0.242-0.872,0.363-1.767,0.363-2.688c0-0.871-0.098-1.767-0.29-2.686c-0.436-1.888-1.574-3.546-3.413-4.974
			c-1.84-1.427-4.623-2.142-8.351-2.142c-2.904,0-5.276,0.679-7.115,2.033c-1.841,1.356-3.195,2.941-4.066,4.756
			c-0.871,1.816-1.307,3.376-1.307,4.684c0,2.421,0.7,4.332,2.105,5.736c1.403,1.404,3.242,2.518,5.519,3.34
			c2.274,0.823,4.72,1.573,7.333,2.251c2.324,0.581,4.623,1.259,6.898,2.033c2.274,0.774,4.345,1.768,6.208,2.977
			c1.863,1.211,3.364,2.784,4.502,4.72c1.137,1.937,1.707,4.405,1.707,7.406c0,1.017-0.255,2.373-0.763,4.066
			c-0.509,1.695-1.429,3.377-2.76,5.047s-3.207,3.086-5.627,4.248c-2.421,1.161-5.567,1.742-9.439,1.742
			C220.369,135.125,216.46,134.254,213.726,132.511z"/>
		<path fill="#FFFFFF" d="M294.74,135.125c0.193,0,0.483-0.12,0.872-0.363c0.822-0.483,1.234-1.403,1.234-2.759
			c0-1.162-0.243-2.371-0.727-3.631l-5.736-15.611h-17.427l-5.736,15.611c-0.484,1.26-0.726,2.494-0.726,3.703
			c0,0.824,0.169,1.478,0.508,1.961c0.338,0.484,0.773,0.823,1.307,1.017l0.219,0.072h-9.948l1.089-0.581
			c0.678-0.338,1.5-0.991,2.469-1.96c0.968-0.968,1.84-2.324,2.614-4.066l17.862-49.812l18.516,49.812
			c0.823,1.742,1.707,3.099,2.65,4.066c0.944,0.969,1.779,1.622,2.506,1.96l1.089,0.581H294.74z M281.671,89.09l-7.697,20.984
			h15.394L281.671,89.09z"/>
		<path fill="#FFFFFF" d="M362.285,135.125l-26.721-49.812c-0.436-0.677-0.871-1.282-1.308-1.815
			c-0.097,0.533-0.145,15.491-0.145,44.874c0,2.179,0.459,3.849,1.379,5.011c0.629,0.871,1.308,1.428,2.033,1.67l0.437,0.072h-9.948
			l0.508-0.29c0.339-0.193,0.75-0.545,1.234-1.054c0.483-0.508,0.92-1.186,1.308-2.032c0.387-0.847,0.628-1.925,0.726-3.231V85.314
			c-0.098-1.307-0.339-2.384-0.726-3.231c-0.388-0.847-0.812-1.525-1.271-2.033c-0.461-0.508-0.884-0.859-1.271-1.053l-0.508-0.291
			h12.779l-0.218,0.072c-0.098,0-0.23,0.049-0.399,0.146c-0.17,0.098-0.339,0.254-0.508,0.472c-0.17,0.218-0.303,0.485-0.399,0.799
			c-0.098,0.315-0.146,0.715-0.146,1.198c0.097,1.017,0.556,2.349,1.38,3.994l20.767,38.775V85.314
			c-0.098-1.307-0.339-2.384-0.726-3.231c-0.389-0.847-0.812-1.525-1.271-2.033s-0.859-0.859-1.197-1.053
			c-0.34-0.193-0.533-0.291-0.581-0.291h9.947l-0.363,0.072c-0.242,0.098-0.557,0.267-0.943,0.508
			c-0.388,0.243-0.775,0.606-1.162,1.089c-0.388,0.484-0.702,1.125-0.943,1.924c-0.243,0.799-0.363,1.828-0.363,3.086v49.739
			H362.285z"/>
		<path fill="#FFFFFF" d="M402.818,135.053l0.509-0.291c0.338-0.192,0.749-0.544,1.234-1.053c0.482-0.508,0.919-1.186,1.307-2.033
			c0.387-0.847,0.629-1.924,0.726-3.231V85.314c-0.339-2.614-1.017-4.404-2.032-5.373h-9.222c-0.921,0-1.659,0.17-2.215,0.508
			c-0.558,0.339-0.993,0.751-1.308,1.234c-0.315,0.484-0.544,0.969-0.689,1.452c-0.146,0.484-0.218,0.896-0.218,1.234l-0.072,0.508
			l-2.179-6.245h40.808l-2.179,6.245l-0.072-0.508c0-0.338-0.072-0.75-0.218-1.234c-0.146-0.483-0.376-0.968-0.689-1.452
			c-0.315-0.483-0.752-0.895-1.308-1.234c-0.557-0.338-1.271-0.508-2.142-0.508h-9.657c-1.114,1.21-1.67,3.026-1.67,5.446v43.058
			c0,2.131,0.459,3.776,1.379,4.938c0.629,0.823,1.331,1.355,2.106,1.597l0.362,0.073H402.818z"/>
		<path fill="#FFFFFF" d="M450.831,135.125l0.508-0.29c0.388-0.193,0.811-0.545,1.271-1.054c0.459-0.508,0.883-1.186,1.271-2.032
			c0.387-0.847,0.628-1.925,0.726-3.231V85.314c-0.098-1.307-0.339-2.384-0.726-3.231c-0.388-0.847-0.812-1.525-1.271-2.033
			c-0.461-0.508-0.86-0.859-1.198-1.053c-0.34-0.193-0.533-0.291-0.581-0.291h12.562l-0.363,0.072
			c-0.242,0.098-0.557,0.267-0.943,0.508c-0.388,0.243-0.775,0.606-1.162,1.089c-0.388,0.484-0.702,1.125-0.943,1.924
			c-0.243,0.799-0.363,1.828-0.363,3.086v42.986c0,1.26,0.12,2.287,0.363,3.086c0.241,0.799,0.556,1.452,0.943,1.961
			c0.387,0.508,0.774,0.884,1.162,1.125c0.387,0.243,0.701,0.388,0.943,0.436l0.363,0.146H450.831z"/>
	</g>
</g>
</svg>
