<?xml version="1.0" encoding="utf-8"?>
<!-- Generator: Adobe Illustrator 16.0.0, SVG Export Plug-In . SVG Version: 6.00 Build 0)  -->
<!DOCTYPE svg PUBLIC "-//W3C//DTD SVG 1.1//EN" "http://www.w3.org/Graphics/SVG/1.1/DTD/svg11.dtd">
<svg version="1.1" id="Layer_1" xmlns="http://www.w3.org/2000/svg" xmlns:xlink="http://www.w3.org/1999/xlink" x="0px" y="0px"
	 width="620px" height="160px" viewBox="0 12 620 160" enable-background="new 0 12 620 160" xml:space="preserve">
<g>
	<path fill="#DEA353" d="M356.423,48.386c-1.157-0.356-28.377,32.38-53.302,61.336l2.97,7.989
		c16.256-19.192,31.716-38.472,48.44-58.335c2.462,10.009,15.386,25.488,31.002,26.186c2.429-0.003,4.855-0.105,7.276-0.308
		c2.458-0.204,4.912-0.487,7.342-0.916c4.461-0.786,8.829-2.035,13.062-3.647c4.553-1.734,9.045-3.624,13.48-5.637
		c10.518-5.889,21.073-11.709,31.671-17.449c10.386-5.625,20.68-11.419,30.882-17.369c1.392-0.924,3.157-2.033,4.323-3.201
		c0.13-0.129,0.354-0.373,0.371-0.572c0.031-0.361-0.34-1.052-0.512-1.352l-0.063-0.113l-0.06-0.117
		c-0.147-0.297-0.486-0.91-0.826-1.041c-0.416-0.159-1.316,0.111-1.709,0.241l-0.176,0.058l-0.179,0.046
		c-2.181,0.546-4.617,1.788-6.64,2.8l-33.088,19.463l-0.146,0.074c-4.188,2.098-8.271,4.398-12.229,6.898
		c-4.194,2.649-8.52,5.092-12.955,7.314c-10.883,6.199-27.69,11.498-39.916,9.998C363.112,78.324,362.655,50.303,356.423,48.386
		L356.423,48.386z M276.399,139.999c-5.363,5.805-9.618,10.098-12.087,12.006l9.725-40.899l13.255-45.267l9.779-35.208l0.037-0.113
		c0.369-1.127,1.052-3.141,1.052-4.307v-0.374l0.057-0.369c0.169-1.093,0.372-2.86-0.19-3.874c-0.333-0.6-0.945-0.902-1.582-1.094
		l-0.208-0.063l-0.201-0.08c-0.918-0.367-2.081,0.198-2.869,0.658c-1.669,0.973-2.957,2.256-3.853,3.969l-3.771,9.428
		c-5.553,15.811-10.599,31.798-15.116,47.934c-4.48,16.001-8.251,32.205-11.253,48.546c-1.013,5.513-5.207,32.433,0.742,32.857
		c3.15,0.225,6.851-2.664,9.433-5.057c-0.654-0.336-1.214-0.867-1.586-1.566c-0.975-1.826-0.283-4.098,1.544-5.072l1.089-0.58
		l0.088-0.045c0.082-0.041,0.236-0.151,0.464-0.332c0.269-0.213,0.608-0.524,1.021-0.938c0.31-0.311,0.603-0.68,0.88-1.111
		c0.331-0.516,0.633-1.069,0.905-1.664L276.399,139.999z"/>
	<g>
		<path fill="#FFFFFF" d="M63.627,155.362L45.11,105.551c-0.774-1.743-1.646-3.097-2.613-4.065c-0.97-0.969-1.792-1.646-2.47-2.033
			l-1.089-0.508h12.563l-0.291,0.071c-0.533,0.194-0.97,0.534-1.308,1.018c-0.339,0.484-0.508,1.138-0.508,1.961
			c0,1.016,0.242,2.25,0.727,3.703l14.449,39.281l14.45-39.281c0.483-1.355,0.727-2.469,0.727-3.34c0-1.5-0.389-2.518-1.162-3.051
			l-0.872-0.362h9.948l-1.018,0.508c-0.726,0.388-1.574,1.064-2.542,2.033c-0.969,0.969-1.84,2.322-2.614,4.065L63.627,155.362z"/>
		<path fill="#FFFFFF" d="M108.154,155.362l0.509-0.29c0.387-0.192,0.81-0.545,1.271-1.054c0.459-0.508,0.883-1.186,1.271-2.032
			c0.387-0.847,0.628-1.925,0.726-3.231v-43.203c-0.098-1.307-0.339-2.384-0.726-3.23c-0.389-0.848-0.813-1.525-1.271-2.033
			c-0.46-0.508-0.86-0.859-1.198-1.053c-0.339-0.193-0.532-0.291-0.581-0.291h12.563l-0.363,0.071
			c-0.243,0.099-0.557,0.268-0.943,0.509c-0.389,0.242-0.775,0.605-1.162,1.089c-0.389,0.483-0.702,1.125-0.944,1.924
			c-0.243,0.799-0.363,1.828-0.363,3.086v42.985c0,1.26,0.12,2.287,0.363,3.086c0.242,0.799,0.556,1.452,0.944,1.961
			c0.387,0.508,0.773,0.884,1.162,1.125c0.387,0.243,0.7,0.389,0.943,0.436l0.363,0.146H108.154z"/>
		<path fill="#FFFFFF" d="M179.332,155.362h-37.323l0.508-0.29c0.338-0.192,0.75-0.545,1.234-1.054
			c0.482-0.508,0.919-1.186,1.307-2.032c0.387-0.847,0.628-1.925,0.727-3.231v-43.203c-0.099-1.307-0.34-2.384-0.727-3.23
			c-0.388-0.848-0.824-1.525-1.307-2.033c-0.484-0.508-0.896-0.859-1.234-1.053l-0.508-0.291h12.562l-0.362,0.145
			c-0.291,0.049-0.617,0.207-0.98,0.473c-0.363,0.267-0.738,0.642-1.125,1.125c-0.388,0.483-0.714,1.125-0.979,1.924
			c-0.268,0.798-0.399,1.828-0.399,3.086v43.059c0,2.371,0.556,4.139,1.67,5.301h20.259c0.871,0,1.598-0.17,2.179-0.51
			c0.581-0.338,1.027-0.75,1.343-1.233c0.313-0.483,0.544-0.968,0.689-1.452c0.146-0.482,0.219-0.896,0.219-1.234l0.072-0.508
			L179.332,155.362z"/>
		<path fill="#FFFFFF" d="M237.873,155.362h-37.322l0.508-0.29c0.338-0.192,0.75-0.545,1.234-1.054
			c0.482-0.508,0.919-1.186,1.307-2.032c0.387-0.847,0.628-1.925,0.727-3.231v-43.203c-0.099-1.307-0.34-2.384-0.727-3.23
			c-0.388-0.848-0.824-1.525-1.307-2.033c-0.484-0.508-0.896-0.859-1.234-1.053l-0.508-0.291h12.562l-0.362,0.145
			c-0.291,0.049-0.617,0.207-0.98,0.473c-0.363,0.267-0.738,0.642-1.125,1.125c-0.388,0.483-0.714,1.125-0.979,1.924
			c-0.268,0.798-0.399,1.828-0.399,3.086v43.059c0,2.371,0.556,4.139,1.67,5.301h20.259c0.871,0,1.598-0.17,2.179-0.51
			c0.581-0.338,1.027-0.75,1.343-1.233c0.313-0.483,0.544-0.968,0.689-1.452c0.146-0.482,0.219-0.896,0.219-1.234l0.072-0.508
			L237.873,155.362z"/>
		<path fill="#FFFFFF" d="M293.22,155.362c0.193,0,0.483-0.12,0.871-0.363c0.823-0.482,1.233-1.402,1.233-2.759
			c0-1.162-0.242-2.371-0.726-3.631l-5.736-15.611h-17.427l-5.735,15.611c-0.484,1.26-0.727,2.494-0.727,3.703
			c0,0.823,0.169,1.478,0.508,1.961c0.338,0.483,0.774,0.823,1.308,1.017l0.218,0.072h-9.948l1.089-0.581
			c0.678-0.338,1.5-0.991,2.47-1.96c0.968-0.968,1.839-2.324,2.613-4.066l17.862-49.811l18.516,49.811
			c0.823,1.742,1.707,3.1,2.65,4.066c0.944,0.969,1.779,1.622,2.505,1.96l1.089,0.581H293.22z M280.148,109.327l-7.696,20.984
			h15.394L280.148,109.327z"/>
		<path fill="#FFFFFF" d="M331.395,152.748c-2.734-1.741-5.481-4.284-8.242-7.624l-0.145-0.218c-0.63-0.728-1.307-1.209-2.033-1.452
			l8.568-4.283c-0.291,1.017-0.437,2.104-0.437,3.268c0,2.131,0.604,4.139,1.815,6.025c2.129,3.438,6.195,5.156,12.198,5.156
			c5.131,0,8.688-1.598,10.674-4.793c1.5-2.42,2.251-5.275,2.251-8.568c-0.389-4.938-2.323-8.53-5.81-10.781
			c-3.485-2.251-7.405-4.006-11.764-5.266c-2.566-0.822-4.95-1.718-7.152-2.687c-2.202-0.968-4.006-2.202-5.408-3.703
			c-1.404-1.5-2.105-3.485-2.105-5.954c0-0.871,0.218-2.045,0.653-3.521s1.233-2.94,2.396-4.393
			c1.161-1.453,2.783-2.674,4.864-3.667c2.081-0.992,4.816-1.489,8.205-1.489c4.356,0,7.721,0.751,10.094,2.251
			c2.371,1.501,4.743,3.703,7.115,6.608c0.242,0.291,0.509,0.569,0.799,0.834c0.291,0.267,0.653,0.473,1.09,0.616l-7.407,3.704
			c0.242-0.872,0.363-1.767,0.363-2.688c0-0.871-0.098-1.767-0.29-2.686c-0.436-1.889-1.574-3.547-3.413-4.975
			c-1.84-1.427-4.623-2.142-8.351-2.142c-2.904,0-5.276,0.679-7.115,2.033c-1.841,1.355-3.195,2.94-4.065,4.756
			c-0.871,1.815-1.308,3.375-1.308,4.684c0,2.42,0.7,4.332,2.105,5.735c1.402,1.404,3.242,2.519,5.519,3.34
			c2.274,0.823,4.72,1.573,7.333,2.251c2.324,0.581,4.623,1.26,6.898,2.033c2.273,0.773,4.345,1.768,6.208,2.977
			c1.862,1.211,3.363,2.785,4.502,4.721c1.137,1.937,1.707,4.404,1.707,7.406c0,1.017-0.255,2.373-0.764,4.065
			c-0.509,1.695-1.429,3.377-2.76,5.047c-1.331,1.671-3.207,3.086-5.627,4.248c-2.421,1.161-5.567,1.742-9.438,1.742
			C338.038,155.362,334.129,154.491,331.395,152.748z"/>
		<path fill="#FFFFFF" d="M412.409,155.362c0.192,0,0.482-0.12,0.871-0.363c0.822-0.482,1.234-1.402,1.234-2.759
			c0-1.162-0.243-2.371-0.727-3.631l-5.736-15.611h-17.427l-5.736,15.611c-0.484,1.26-0.726,2.494-0.726,3.703
			c0,0.823,0.169,1.478,0.508,1.961c0.338,0.483,0.772,0.823,1.307,1.017l0.219,0.072h-9.947l1.089-0.581
			c0.678-0.338,1.5-0.991,2.469-1.96c0.968-0.968,1.84-2.324,2.614-4.066l17.862-49.811l18.516,49.811
			c0.823,1.742,1.707,3.1,2.649,4.066c0.944,0.969,1.779,1.622,2.507,1.96l1.089,0.581H412.409z M399.34,109.327l-7.697,20.984
			h15.395L399.34,109.327z"/>
		<path fill="#FFFFFF" d="M479.954,155.362l-26.721-49.812c-0.437-0.677-0.871-1.281-1.309-1.814
			c-0.097,0.533-0.145,15.49-0.145,44.873c0,2.179,0.459,3.849,1.379,5.011c0.629,0.871,1.308,1.428,2.033,1.67l0.437,0.072h-9.948
			l0.508-0.29c0.34-0.192,0.75-0.545,1.234-1.054c0.482-0.508,0.92-1.186,1.309-2.032c0.387-0.847,0.627-1.925,0.726-3.231v-43.203
			c-0.099-1.307-0.339-2.384-0.726-3.23c-0.389-0.848-0.813-1.525-1.271-2.033c-0.461-0.508-0.884-0.859-1.271-1.053l-0.508-0.291
			h12.779l-0.218,0.071c-0.099,0-0.23,0.05-0.399,0.146c-0.17,0.098-0.339,0.254-0.508,0.472c-0.17,0.219-0.303,0.485-0.398,0.799
			c-0.099,0.315-0.146,0.716-0.146,1.198c0.098,1.018,0.557,2.35,1.38,3.994l20.767,38.774v-38.848
			c-0.098-1.307-0.338-2.384-0.726-3.23c-0.39-0.848-0.812-1.525-1.271-2.033s-0.859-0.859-1.197-1.053
			c-0.34-0.193-0.533-0.291-0.581-0.291h9.946l-0.362,0.071c-0.242,0.099-0.558,0.268-0.942,0.509
			c-0.389,0.242-0.775,0.605-1.162,1.089c-0.389,0.483-0.703,1.125-0.943,1.924c-0.243,0.799-0.363,1.828-0.363,3.086v49.738
			L479.954,155.362L479.954,155.362z"/>
		<path fill="#FFFFFF" d="M520.487,155.29l0.509-0.291c0.338-0.191,0.749-0.544,1.233-1.053c0.482-0.508,0.92-1.186,1.308-2.033
			c0.387-0.847,0.629-1.924,0.726-3.23v-43.131c-0.339-2.613-1.017-4.403-2.031-5.373h-9.223c-0.921,0-1.658,0.17-2.215,0.509
			c-0.559,0.339-0.993,0.751-1.309,1.233c-0.314,0.484-0.543,0.969-0.688,1.452c-0.146,0.484-0.218,0.896-0.218,1.234l-0.072,0.508
			l-2.179-6.245h40.808l-2.179,6.245l-0.072-0.508c0-0.338-0.071-0.75-0.218-1.234c-0.146-0.483-0.376-0.968-0.689-1.452
			c-0.314-0.482-0.752-0.895-1.308-1.233c-0.557-0.339-1.271-0.509-2.142-0.509h-9.657c-1.114,1.21-1.67,3.026-1.67,5.446v43.058
			c0,2.131,0.459,3.775,1.379,4.938c0.629,0.823,1.331,1.355,2.105,1.598l0.362,0.072H520.487L520.487,155.29z"/>
		<path fill="#FFFFFF" d="M568.5,155.362l0.508-0.29c0.388-0.192,0.812-0.545,1.271-1.054c0.459-0.508,0.883-1.186,1.271-2.032
			c0.387-0.847,0.628-1.925,0.727-3.231v-43.203c-0.099-1.307-0.34-2.384-0.727-3.23c-0.388-0.848-0.812-1.525-1.271-2.033
			c-0.461-0.508-0.86-0.859-1.198-1.053c-0.34-0.193-0.533-0.291-0.581-0.291h12.562l-0.362,0.071
			c-0.242,0.099-0.558,0.268-0.943,0.509c-0.388,0.242-0.774,0.605-1.162,1.089s-0.702,1.125-0.942,1.924
			c-0.243,0.799-0.363,1.828-0.363,3.086v42.985c0,1.26,0.12,2.287,0.363,3.086c0.24,0.799,0.556,1.452,0.942,1.961
			c0.388,0.508,0.774,0.884,1.162,1.125c0.387,0.243,0.701,0.389,0.943,0.436l0.362,0.146H568.5z"/>
	</g>
</g>
</svg>
